<svg viewBox="0 0 27 28" fill="none" xmlns="http://www.w3.org/2000/svg" class="md:w-[34.22px] md:h-[34.22px] w-[26.89px] h-[26.89px] text-doctor-darwin-neutral-0"><path d="M21.902 5.046H5.097a1.68 1.68 0 00-1.68 1.68v6.166c0 9.39 7.96 12.51 9.557 13.035.341.112.71.112 1.05 0 1.597-.525 9.559-3.645 9.559-13.035V6.726a1.68 1.68 0 00-1.68-1.68zM18.7 12.377l-6.155 5.882a.85.85 0 01-1.166 0L8.3 15.32a.84.84 0 111.156-1.22l2.5 2.385 5.587-5.325a.84.84 0 011.156 1.218z" fill="currentColor"></path></svg>