<svg xmlns="http://www.w3.org/2000/svg" viewBox="0 0 123.826 40.552" class="md:w-[80px] md:h-[34.22px] w-[58px] h-[30px] text-doctor-darwin-neutral-0"><g data-name="Group 742"><path data-name="Path 1" d="M2.965 38.087h1.038l1.832-6.615H5.9l1.833 6.615H8.77l2.27-8.3h-1.021l-1.735 6.76h-.082l-1.768-6.762H5.3l-1.767 6.762h-.081l-1.735-6.762H.695zm9.2 0h.957v-6.226h-.957zm.487-7.264a.65.65 0 10-.681-.648.667.667 0 00.681.648zm3.179 3.519a1.543 1.543 0 011.589-1.7 1.376 1.376 0 011.425 1.554v3.891h.957v-3.956c0-1.59-.848-2.351-2.108-2.351a1.839 1.839 0 00-1.817 1.054h-.08v-.973h-.925v6.226h.957zm6.677 0a1.544 1.544 0 011.59-1.7 1.376 1.376 0 011.424 1.554v3.891h.957v-3.956c0-1.59-.847-2.351-2.108-2.351a1.837 1.837 0 00-1.819 1.054h-.081v-.973h-.919v6.226h.956v-3.745zm5.721 3.745h.957v-6.226h-.957zm.487-7.264a.65.65 0 10-.681-.648.667.667 0 00.681.648zm3.179 3.519a1.543 1.543 0 011.589-1.7 1.376 1.376 0 011.425 1.554v3.891h.957v-3.956c0-1.59-.848-2.351-2.108-2.351a1.836 1.836 0 00-1.816 1.054h-.081v-.973h-.925v6.226h.957zm8.234 6.21c1.492 0 2.692-.68 2.692-2.286v-6.4h-.924v.989h-.1a1.924 1.924 0 00-1.816-1.07c-1.573 0-2.66 1.248-2.66 3.162 0 1.946 1.136 3.048 2.644 3.048a1.892 1.892 0 001.816-1.054h.081v1.265c0 1.038-.73 1.508-1.735 1.508a1.952 1.952 0 01-1.784-.94l-.762.535a2.747 2.747 0 002.546 1.248zm-.032-3.421c-1.2 0-1.816-.908-1.816-2.206 0-1.264.6-2.286 1.816-2.286 1.167 0 1.783.94 1.783 2.286 0 1.379-.632 2.206-1.783 2.206zm14.82-3.195c0-2.627-1.54-4.264-3.664-4.264s-3.665 1.637-3.665 4.264 1.54 4.265 3.665 4.265 3.662-1.638 3.662-4.265zm-.973 0c0 2.157-1.183 3.324-2.691 3.324s-2.694-1.164-2.694-3.324 1.184-3.324 2.692-3.324 2.691 1.168 2.691 3.324zm7.625-2.075H60.53l-1.72 4.962h-.064l-1.719-4.962h-1.038l2.3 6.226h.973l2.3-6.226zm3.65 6.356a2.422 2.422 0 002.482-1.573l-.925-.26a1.522 1.522 0 01-1.556.974 1.887 1.887 0 01-1.942-2.06h4.52v-.4c0-2.319-1.378-3.113-2.675-3.113-1.687 0-2.806 1.33-2.806 3.243s1.1 3.194 2.9 3.194zm-1.941-3.745a1.859 1.859 0 011.844-1.833 1.688 1.688 0 011.7 1.832h-3.546zm5.974 3.615h.957v-3.94a1.473 1.473 0 011.573-1.46 2.924 2.924 0 01.584.066v-.973q-.251-.015-.5-.016a1.7 1.7 0 00-1.622 1.037h-.064v-.94h-.928v6.226zM83.52 32.38a3.235 3.235 0 00-3.34-2.708c-2.124 0-3.664 1.637-3.664 4.264s1.54 4.265 3.664 4.265a3.235 3.235 0 003.34-2.708h-1a2.259 2.259 0 01-2.335 1.767c-1.508 0-2.692-1.167-2.692-3.324s1.184-3.324 2.692-3.324a2.26 2.26 0 012.335 1.768h1zm4.025 5.837c1.686 0 2.821-1.28 2.821-3.21 0-1.946-1.135-3.227-2.821-3.227s-2.822 1.28-2.822 3.227c-.001 1.93 1.129 3.21 2.821 3.21zm0-.86c-1.281 0-1.865-1.1-1.865-2.35s.584-2.368 1.865-2.368 1.865 1.119 1.865 2.368-.585 2.35-1.866 2.35zm9.15-5.5h-1.043l-1.718 4.962h-.065l-1.717-4.958h-1.036l2.3 6.226h.973l2.3-6.226zm1.257 6.23h.957v-6.226h-.957zm.486-7.264a.65.65 0 10-.681-.648.668.668 0 00.686.648zm4.574 7.394a1.927 1.927 0 001.816-1.086h.114v.956h.924v-8.3h-.957v3.065h-.081a1.9 1.9 0 00-1.8-1.07c-1.573 0-2.66 1.248-2.66 3.21 0 1.979 1.087 3.227 2.644 3.227zm.13-.86c-1.2 0-1.816-1.053-1.816-2.383 0-1.313.6-2.335 1.816-2.335 1.167 0 1.783.94 1.783 2.335s-.632 2.384-1.783 2.384zm8.176-3.275h-3.632v.892h3.632v-.892zm4.586-4.3h-1l-2.076 1.379v1.021l2.027-1.346h.049v7.248h1v-8.3zm5.031-.113a2.671 2.671 0 00-2.773 2.773 2.644 2.644 0 002.61 2.756 2.42 2.42 0 002.044-1.1h.064c0 2.043-.794 3.21-2.075 3.21a1.565 1.565 0 01-1.589-1.313h-.989a2.49 2.49 0 002.578 2.205c1.865 0 3.016-1.654 3.016-4.6 0-3.049-1.524-3.908-2.886-3.924zm0 .892a1.84 1.84 0 011.8 1.864 1.882 1.882 0 01-1.832 1.881 1.784 1.784 0 01-1.767-1.864 1.825 1.825 0 011.8-1.881zM17.552 15.204a8 8 0 01-2.61 5.523 8.918 8.918 0 01-6.051 1.969 8.688 8.688 0 01-4.658-1.245 8.282 8.282 0 01-3.1-3.566 12.819 12.819 0 01-1.138-5.356V10.47a12.939 12.939 0 011.107-5.508A8.369 8.369 0 014.279 1.29 8.9 8.9 0 019.073-.004a8.523 8.523 0 015.888 1.988 8.3 8.3 0 012.591 5.618h-3.82a5.4 5.4 0 00-1.4-3.43 4.546 4.546 0 00-3.263-1.061 4.5 4.5 0 00-3.854 1.836 9.131 9.131 0 00-1.363 5.356v1.957a9.743 9.743 0 001.274 5.463 4.275 4.275 0 003.763 1.881 4.971 4.971 0 003.4-1.016 5.3 5.3 0 001.44-3.384zm30.975-.708h-7.966v-2.98h7.966v2.974zm20.1 2.443l3.4-16.63h3.809L70.74 22.396h-3.672l-4.2-16.13-4.296 16.13h-3.687L49.785.304h3.808l3.43 16.6 4.218-16.6h3.216l4.173 16.63zm13.449 5.457h-3.824V.304h3.823zm21.623 0H99.86L90.013 6.722v15.674h-3.84V.304h3.84l9.878 15.734V.304h3.808z" fill="#fff"></path><path data-name="Path 2" d="M38.195 14.501a8 8 0 11-8-8 8 8 0 018 8z" fill="#fcbf02" stroke="#fff" stroke-width="0.634"></path><g data-name="Group 3"><g data-name="Group 2" fill="#fff"><path data-name="Path 3" d="M29.195 10.001h2v9h-2z"></path><path data-name="Path 4" d="M34.695 13.501v2h-9v-2z"></path></g></g></g></svg>