<svg viewBox="0 0 193 49" fill="none" xmlns="http://www.w3.org/2000/svg" class="text-gmb-primary-main md:w-168 md:h-42 w-125 h-30 md:mr-50 cursor-pointer"><path d="M43.362 14.524a8.284 8.284 0 01-2.43 5.409l-14.23 14.263c-.355.357-.77.713-1.244 1.01-3.261 2.2-7.707 1.784-10.494-1.01a8.31 8.31 0 01-2.371-6.656c.06-1.486 1.304-2.615 2.786-2.615a2.787 2.787 0 012.787 2.793c0 .832-.356 1.546-.89 2.08.178.476.475.951.89 1.308a3.905 3.905 0 002.727 1.129c.652 0 1.245-.119 1.778-.416.356-.178.652-.416.949-.713l6.995-7.013-2.904-2.912-4.15-4.16a3.905 3.905 0 00-2.728-1.13 3.905 3.905 0 00-2.727 1.13 4.061 4.061 0 00-1.008 1.664c.653.535 1.127 1.307 1.127 2.199a2.787 2.787 0 01-2.787 2.793c-1.422 0-2.667-1.13-2.786-2.556-.474-2.674.356-5.348 2.312-7.31a8.237 8.237 0 015.87-2.436 8.34 8.34 0 015.869 2.436l4.15 4.16 2.905 2.913 4.031-4.042c.77-.772 1.126-1.723 1.126-2.793 0-.95-.355-1.842-1.007-2.496-1.72-1.902-3.795-3.388-6.107-4.458-2.43-1.07-4.98-1.664-7.648-1.664-4.98 0-9.604 1.962-13.16 5.468a18.591 18.591 0 00-5.455 13.194c0 4.992 1.956 9.628 5.454 13.194a18.499 18.499 0 0013.161 5.467c2.668 0 5.218-.535 7.648-1.664 2.312-1.07 4.387-2.555 6.107-4.457a3.946 3.946 0 00-.119-5.349l-2.964-2.971 3.142-3.15 2.964 2.971c3.142 3.15 3.26 8.142.297 11.47a22.898 22.898 0 01-7.53 5.528c-2.964 1.367-6.165 2.02-9.485 2.02-3.083 0-6.107-.594-8.952-1.783-2.727-1.188-5.217-2.852-7.292-4.932-2.135-2.14-3.795-4.577-4.921-7.31a23.298 23.298 0 01-1.779-8.975c0-3.09.593-6.121 1.779-8.974 1.186-2.734 2.846-5.23 4.92-7.31 2.135-2.14 4.566-3.804 7.293-4.933a23.141 23.141 0 018.952-1.783c3.32 0 6.462.714 9.485 2.021 2.905 1.308 5.395 3.15 7.53 5.527.889 1.01 1.6 2.259 1.897 3.566.178.535.237 1.426.237 2.258zM71 20.473c-.45-.645-1.03-1.226-1.673-1.742a9.238 9.238 0 00-1.996-1.226 12.576 12.576 0 00-2.189-.775c-.772-.193-1.545-.258-2.317-.258-.901 0-1.867.13-2.833.387-.837.258-1.673.581-2.446 1.033-1.48.904-2.768 2.194-3.605 3.678-.45.775-.773 1.614-1.03 2.453-.258.903-.322 1.807-.322 2.71 0 .904.129 1.808.386 2.711.258.839.58 1.678 1.095 2.452a10.742 10.742 0 003.733 3.679c.773.452 1.61.839 2.447 1.032a9.008 9.008 0 002.64.388h.064c.58 0 1.223-.065 1.802-.194.58-.129 1.159-.258 1.674-.452a8.649 8.649 0 001.545-.774c.45-.258.966-.58 1.352-.904l.58-.58c.193-.258.257-.517.321-.84 0-.193-.064-.322-.128-.516-.065-.129-.13-.258-.194-.322l-.257-.323c-.064-.065-.129-.194-.193-.323-.129-.193-.258-.387-.45-.58a1.508 1.508 0 00-.451-.452 1.036 1.036 0 00-.58-.194h-.129c-.257 0-.515.065-.708.258-.129.065-.257.194-.322.258-.257.194-.515.452-.837.646-.257.193-.579.387-.837.516-.321.13-.643.258-1.03.323-.386.064-.772.129-1.223.129h-.064c-.644 0-1.288-.13-1.867-.387a5.591 5.591 0 01-1.674-1.033 7.779 7.779 0 01-1.352-1.549c-.193-.323-.386-.645-.515-.968H71.58c.837 0 1.417-.58 1.417-1.42.064-1.29-.13-2.646-.451-3.872-.258-1.032-.837-2.065-1.545-2.969zm-2.51 4.066H57.417a6.42 6.42 0 01.708-1.29A6.9 6.9 0 0159.8 21.57c.45-.323 1.03-.517 1.545-.646a6.999 6.999 0 011.674-.193c.708 0 1.352.129 1.996.322a4.631 4.631 0 011.738.968c.515.388.966.904 1.288 1.485.193.322.321.645.45 1.032zM89.99 34.542l-7.468-8.906 6.567-6.841c.193-.258.322-.646.322-.904 0-.193 0-.322-.064-.451-.065-.13-.194-.259-.322-.452a1.235 1.235 0 00-.773-.258h-2.124c-.322 0-.58.064-.837.193-.193.13-.322.259-.515.388l-6.18 6.582v-11.23c0-.193 0-.386-.13-.58-.064-.194-.192-.387-.321-.452a1.308 1.308 0 00-.966-.387H75.7c-.194 0-.387 0-.58.065a1.4 1.4 0 00-.515.322c-.257.258-.386.581-.386.968v22.524c0 .193 0 .387.064.516.065.194.193.387.322.516a1.4 1.4 0 00.515.323c.129.064.258.064.45.064H77.05c.837 0 1.417-.58 1.417-1.42v-5.356l1.094-1.097 5.858 7.099c.13.194.258.452.516.58.257.13.514.259.772.259h2.446c.258 0 .451 0 .644-.13l.065-.064c.128-.064.515-.322.515-.903 0-.13 0-.258-.065-.387 0-.194-.129-.388-.322-.581z" fill="currentColor"></path><path d="M107.829 16.729h-1.417c-.193 0-.386 0-.515.065a1.405 1.405 0 00-.515.322c-.129.13-.257.323-.322.516-.064.194-.064.388-.064.517v.064c-.579-.387-1.159-.774-1.803-1.032a9.749 9.749 0 00-3.798-.775h-.129c-.901 0-1.802.13-2.704.388-.837.258-1.673.58-2.446 1.032-.772.452-1.48.968-2.06 1.613a9.903 9.903 0 00-1.61 2.066c-.45.774-.836 1.613-1.03 2.452-.514 1.807-.514 3.679 0 5.421.258.839.58 1.678 1.03 2.453a11.123 11.123 0 003.67 3.678c.773.452 1.61.839 2.447 1.033a9.776 9.776 0 002.703.387h.13a9.749 9.749 0 003.797-.775c.644-.258 1.224-.645 1.803-1.032v.129c0 .194 0 .387.129.58.064.194.193.323.322.452.128.13.321.259.515.323.193.065.386.13.515.065h1.48c.387 0 .708-.13.966-.388.129-.129.257-.322.322-.516.064-.193.129-.387.064-.516V18.149c0-.517-.193-.84-.386-1.033-.193-.194-.515-.387-1.094-.387zm-2.769 9.874c0 .774-.128 1.549-.45 2.323-.322.71-.708 1.356-1.288 1.936a5.566 5.566 0 01-1.867 1.356c-.708.322-1.48.516-2.253.516a4.969 4.969 0 01-2.189-.516c-.708-.323-1.288-.775-1.867-1.356-.515-.58-.966-1.226-1.223-1.936a6.257 6.257 0 010-4.582c.322-.71.708-1.355 1.223-1.936.515-.58 1.159-.968 1.867-1.29.708-.323 1.48-.517 2.189-.517.773 0 1.545.194 2.253.516a6.432 6.432 0 011.867 1.291c.515.581.966 1.226 1.288 1.936.322.71.45 1.485.45 2.259zM135.117 32.67c-.065-.064-.129-.193-.193-.258l-.644-.839c-.065-.129-.193-.258-.258-.387-.128-.258-.386-.387-.708-.517a1.564 1.564 0 00-.772 0c-.193.065-.322.13-.515.259l-.194.193c-.257.194-.515.452-.836.646-.258.193-.58.387-.837.516-.322.129-.644.258-1.03.323-.387.064-.773.129-1.224.129h-.064c-.708 0-1.481-.194-2.124-.452a6.42 6.42 0 01-1.867-1.29c-.58-.582-.966-1.227-1.288-1.937-.322-.71-.451-1.484-.451-2.323 0-.775.194-1.614.515-2.323.322-.71.773-1.42 1.288-1.937a5.566 5.566 0 011.867-1.355 4.908 4.908 0 012.124-.516c.387 0 .709.064 1.095.129.708.129 1.416.452 1.996.839.257.194.515.387.772.645.322.323.708.517 1.095.517.257 0 .643-.13.965-.581l1.095-1.42c.193-.258.193-.58.193-.839 0-.194-.129-.452-.258-.645l-.386-.388-.258-.193c-.386-.323-.836-.581-1.287-.84-.515-.257-.966-.515-1.481-.71-.515-.193-1.094-.322-1.674-.45-.579-.13-1.158-.195-1.738-.13-.901 0-1.802.13-2.704.387-.837.258-1.673.581-2.446 1.033-1.545.903-2.768 2.194-3.734 3.678a11.853 11.853 0 00-1.094 2.453c-.515 1.807-.515 3.678 0 5.42.257.84.579 1.679 1.094 2.453a10.74 10.74 0 003.734 3.679c.773.452 1.609.839 2.446 1.032a9.342 9.342 0 002.64.388h.064c.58 0 1.223-.065 1.803-.194.579-.129 1.159-.258 1.674-.452a8.643 8.643 0 001.545-.774c.45-.258.901-.581 1.352-.904.193-.129.386-.322.515-.516.128-.194.257-.387.321-.58.065-.259.065-.517 0-.71l-.128-.259zM154.436 16.729h-1.416c-.193 0-.387 0-.515.065a1.396 1.396 0 00-.515.322c-.129.13-.258.323-.322.516-.065.194-.065.388-.065.517v.064c-.579-.387-1.158-.774-1.802-1.032a9.833 9.833 0 00-6.567-.387c-.837.258-1.673.58-2.446 1.032-.773.452-1.481.968-2.06 1.613a9.912 9.912 0 00-1.61 2.066c-.45.774-.772 1.613-1.03 2.452-.515 1.807-.515 3.679 0 5.421.709 2.581 2.447 4.776 4.7 6.131.773.452 1.609.839 2.446 1.033a9.783 9.783 0 002.704.387h.129a9.752 9.752 0 003.798-.775c.644-.258 1.223-.645 1.803-1.032v.129c0 .194 0 .387.129.58.064.194.193.323.321.452.129.13.322.259.515.323.194.065.387.13.515.065h1.481c.386 0 .708-.13.966-.388.129-.129.257-.322.322-.516.064-.193.128-.387.128-.516V18.149c0-.517-.193-.84-.386-1.033-.322-.194-.644-.387-1.223-.387zm-2.704 9.874a5.98 5.98 0 01-.45 2.323c-.322.71-.709 1.42-1.288 1.936a5.566 5.566 0 01-1.867 1.356c-.708.322-1.481.516-2.253.516a4.969 4.969 0 01-2.189-.516c-.708-.323-1.288-.775-1.867-1.356-.515-.58-.966-1.226-1.223-1.936a6.25 6.25 0 010-4.582c.322-.71.708-1.355 1.223-1.936.515-.58 1.159-.968 1.867-1.29.708-.323 1.481-.517 2.189-.517.772 0 1.545.194 2.253.516a6.432 6.432 0 011.867 1.291c.515.581.966 1.226 1.288 1.936.257.71.45 1.485.45 2.259zM171.234 19.44c0-.193-.064-.386-.128-.58-.065-.194-.194-.323-.322-.452-.129-.129-.258-.258-.451-.322a20.39 20.39 0 00-1.223-.775c-.386-.194-.773-.387-1.223-.516-.451-.13-.902-.194-1.352-.258-.515-.065-1.03-.065-1.481-.065-.579 0-1.094.065-1.609.258a7.351 7.351 0 00-1.224.646c-.064.064-.128.129-.193.129a1.335 1.335 0 00-.257-.387 1.405 1.405 0 00-.515-.323c-.193-.065-.387-.13-.515-.065h-1.481c-.193 0-.386 0-.515.13-.193.064-.322.193-.451.258a1.41 1.41 0 00-.321.516c-.065.193-.129.387-.129.516v17.102c0 .84.579 1.42 1.416 1.42h1.609c.129 0 .322 0 .451-.064.193-.065.386-.194.515-.323.129-.13.258-.323.322-.516.064-.194.064-.388.064-.517V23.958c0-.516.065-.968.258-1.42.129-.387.386-.71.644-1.032.257-.258.579-.452.901-.645a3.001 3.001 0 011.094-.194c.515 0 1.03.065 1.545.258.58.194 1.095.452 1.546.775l.193.129c.193.193.45.258.772.258a.73.73 0 00.515-.194c.193-.129.322-.258.451-.387l.901-1.42a1.09 1.09 0 00.193-.645zM190.806 23.505c-.322-1.097-.772-2.194-1.48-3.098-.515-.645-1.03-1.226-1.674-1.742a9.252 9.252 0 00-1.996-1.226 12.56 12.56 0 00-2.189-.775c-.772-.193-1.545-.258-2.317-.258h-.065c-.901 0-1.867.13-2.768.388-.837.258-1.674.58-2.446 1.032-.773.452-1.481.968-2.06 1.613-1.224 1.291-2.125 2.84-2.576 4.518-.257.903-.321 1.807-.321 2.71 0 .904.128 1.872.386 2.711.257.839.579 1.678 1.03 2.453.451.774 1.03 1.484 1.609 2.065.644.645 1.352 1.161 2.06 1.613.773.452 1.61.839 2.447 1.033a9.33 9.33 0 002.639.387h.065a8.12 8.12 0 001.802-.194c.58-.129 1.159-.258 1.674-.452a8.643 8.643 0 001.545-.774c.451-.258.901-.58 1.352-.904.193-.193.451-.387.579-.58.194-.194.258-.452.258-.84 0-.193-.064-.322-.129-.516-.064-.129-.129-.258-.193-.322l-.193-.258c-.064-.065-.129-.194-.258-.323l-.45-.58a.779.779 0 00-.322-.324c-.129-.129-.322-.193-.515-.258-.193-.064-.386-.064-.515 0a3.148 3.148 0 00-.451.194c-.129.064-.257.194-.322.258-.257.194-.515.452-.837.645a5.824 5.824 0 01-.837.517c-.321.129-.643.258-1.03.322-.386.065-.836.13-1.223.13h-.064a4.605 4.605 0 01-1.867-.388 5.588 5.588 0 01-1.674-1.032c-.515-.452-.966-.968-1.287-1.55-.194-.322-.387-.645-.515-.967h14.163c.836 0 1.416-.581 1.416-1.42.064-1.226-.129-2.517-.451-3.808zm-4.056 1.033h-11.072c.193-.452.386-.84.708-1.29a6.895 6.895 0 011.673-1.679c.451-.322.966-.516 1.546-.645a6.995 6.995 0 011.673-.194c.709 0 1.352.13 1.996.323a4.63 4.63 0 011.738.968c.515.387.966.903 1.288 1.484.129.323.322.646.45 1.033zM115.032 31.832a2.31 2.31 0 00-1.48-.13c-.515.13-.966.324-1.352.71-.386.388-.644.84-.708 1.356-.129.71 0 1.355.386 1.936s.966.968 1.609 1.097c.193.065.322.065.515.065.322 0 .644-.065.966-.194.451-.193.901-.516 1.159-.968.257-.452.45-.903.45-1.42 0-.516-.128-1.032-.45-1.42-.193-.516-.58-.838-1.095-1.032z" fill="currentColor"></path></svg>