<svg width="56" height="57" viewBox="0 0 56 57" fill="none" xmlns="http://www.w3.org/2000/svg"><rect y="0.122559" width="56" height="56" rx="4" fill="#FFF5DB"></rect><path d="M38 16.1226H35V15.1226C35 14.8573 34.8946 14.603 34.7071 14.4155C34.5196 14.2279 34.2652 14.1226 34 14.1226C33.7348 14.1226 33.4804 14.2279 33.2929 14.4155C33.1054 14.603 33 14.8573 33 15.1226V16.1226H23V15.1226C23 14.8573 22.8946 14.603 22.7071 14.4155C22.5196 14.2279 22.2652 14.1226 22 14.1226C21.7348 14.1226 21.4804 14.2279 21.2929 14.4155C21.1054 14.603 21 14.8573 21 15.1226V16.1226H18C17.4696 16.1226 16.9609 16.3333 16.5858 16.7083C16.2107 17.0834 16 17.5921 16 18.1226V38.1226C16 38.653 16.2107 39.1617 16.5858 39.5368C16.9609 39.9118 17.4696 40.1226 18 40.1226H38C38.5304 40.1226 39.0391 39.9118 39.4142 39.5368C39.7893 39.1617 40 38.653 40 38.1226V18.1226C40 17.5921 39.7893 17.0834 39.4142 16.7083C39.0391 16.3333 38.5304 16.1226 38 16.1226ZM38 22.1226H18V18.1226H21V19.1226C21 19.3878 21.1054 19.6421 21.2929 19.8297C21.4804 20.0172 21.7348 20.1226 22 20.1226C22.2652 20.1226 22.5196 20.0172 22.7071 19.8297C22.8946 19.6421 23 19.3878 23 19.1226V18.1226H33V19.1226C33 19.3878 33.1054 19.6421 33.2929 19.8297C33.4804 20.0172 33.7348 20.1226 34 20.1226C34.2652 20.1226 34.5196 20.0172 34.7071 19.8297C34.8946 19.6421 35 19.3878 35 19.1226V18.1226H38V22.1226Z" fill="#EDAE0C"></path></svg>