<svg viewBox="0 0 31 27" fill="none" xmlns="http://www.w3.org/2000/svg" class="w-32 h-32"><path d="M11.095 5.646H4.952V25.44h21.917V5.646h-6.272" stroke="currentColor" stroke-width="2" stroke-linejoin="round"></path><path d="M1.828 24.534a1 1 0 100 2v-2zm28.137 2a1 1 0 100-2v2zm-28.137 0h28.137v-2H1.828v2z" fill="currentColor"></path><path stroke="currentColor" stroke-width="2" stroke-linejoin="round" d="M12.148 15.432h7.509v10.077h-7.509z"></path><rect x="10.859" y="1.067" width="10.124" height="9.692" rx="4.846" stroke="currentColor" stroke-width="2" stroke-linejoin="round"></rect><path d="M16.96 4.094a1 1 0 10-2 0h2zm-2 3.484a1 1 0 102 0h-2zm0-3.484v3.484h2V4.094h-2z" fill="currentColor"></path><path d="M14.245 4.835a1 1 0 100 2v-2zm3.427 2a1 1 0 100-2v2zm-3.428 0h3.428v-2h-3.428v2z" fill="currentColor"></path></svg>