<svg viewBox="0 0 35 29" fill="none" xmlns="http://www.w3.org/2000/svg" class="md:w-[80px] md:h-[34.22px] w-[29px] h-[22px] text-doctor-darwin-neutral-1000 "><path d="M7.144 14.781c-.691.638-.745 1.702-.16 2.446a1.687 1.687 0 002.393.106c.903-.797 1.967-1.435 3.03-1.914l-2.924-2.286c-.85.479-1.595 1.01-2.34 1.648zm10.473 4.732h-.372a3.392 3.392 0 00-3.402 3.402c0 1.861 1.541 3.403 3.402 3.403a3.392 3.392 0 003.403-3.403c0-.425-.053-.797-.16-1.17l-2.87-2.232zM.764 9.093c-.638.637-.691 1.754-.053 2.392.691.691 1.754.744 2.445.053.638-.638 1.383-1.17 2.074-1.701l-2.765-2.18c-.585.425-1.17.904-1.701 1.436zm18.874 5.529c2.02.425 3.934 1.329 5.529 2.711.319.32.69.425 1.116.425.479 0 .904-.16 1.276-.531.585-.744.532-1.808-.16-2.446-2.817-2.445-6.38-3.828-10.154-3.828-.691 0-1.382.107-2.02.16l-5.05-3.934c2.232-.851 4.625-1.33 7.07-1.33 5.264 0 10.314 2.02 14.089 5.69.372.318.797.478 1.223.478.425 0 .85-.16 1.222-.532.638-.638.585-1.755-.053-2.392a23.648 23.648 0 00-16.48-6.646c-3.563 0-7.019.85-10.155 2.34L2.306 1.064a1.05 1.05 0 00-.745-.32 1.21 1.21 0 00-1.01.532C.073 1.81.18 2.607.764 3.032L32.238 27.7c.531.479 1.329.372 1.754-.212.479-.532.372-1.33-.212-1.755L19.637 14.622z" fill="currentColor"></path></svg>