<svg width="56" height="57" viewBox="0 0 56 57" fill="none" xmlns="http://www.w3.org/2000/svg"><rect y="0.122559" width="56" height="56" rx="4" fill="#FFF4F3"></rect><path d="M41.6876 25.1602C41.6565 25.0204 41.5958 24.8889 41.5095 24.7746C41.4233 24.6603 41.3135 24.5658 41.1876 24.4977L38.2126 22.8477C38.0542 22.5227 37.8792 22.2102 37.6876 21.9102L37.7376 18.5102C37.7387 18.3675 37.7104 18.2262 37.6545 18.095C37.5986 17.9638 37.5162 17.8456 37.4126 17.7477C35.9313 16.4046 34.1795 15.3945 32.2751 14.7852C32.1383 14.7425 31.994 14.7294 31.8518 14.7466C31.7096 14.7639 31.5727 14.8111 31.4501 14.8852L28.5376 16.6352C28.1751 16.6227 27.8251 16.6227 27.4626 16.6352L24.5501 14.8852C24.4274 14.8111 24.2905 14.7639 24.1483 14.7466C24.0061 14.7294 23.8618 14.7425 23.7251 14.7852C21.8181 15.3949 20.0656 16.4098 18.5876 17.7602C18.483 17.8547 18.3999 17.9706 18.3438 18.1C18.2878 18.2293 18.26 18.3692 18.2626 18.5102L18.3251 21.9102C18.1251 22.2102 17.9501 22.5227 17.7751 22.8477L14.8126 24.4977C14.6851 24.5638 14.574 24.6576 14.4875 24.7722C14.401 24.8869 14.3412 25.0194 14.3126 25.1602C13.8875 27.1123 13.8875 29.133 14.3126 31.0852C14.3436 31.2249 14.4043 31.3564 14.4906 31.4707C14.5768 31.585 14.6866 31.6795 14.8126 31.7477L17.7876 33.3977C17.947 33.721 18.1266 34.0341 18.3251 34.3352L18.2626 37.7352C18.2614 37.8778 18.2897 38.0191 18.3456 38.1503C18.4015 38.2815 18.4839 38.3997 18.5876 38.4977C20.0709 39.8379 21.8221 40.8477 23.7251 41.4602C23.8618 41.5028 24.0061 41.5159 24.1483 41.4987C24.2905 41.4815 24.4274 41.4342 24.5501 41.3602L27.4626 39.6102H28.5376L31.4626 41.3602C31.6146 41.4601 31.7931 41.5124 31.9751 41.5102C32.0767 41.5058 32.1775 41.489 32.2751 41.4602C34.182 40.8504 35.9345 39.8355 37.4126 38.4852C37.5171 38.3906 37.6002 38.2747 37.6563 38.1454C37.7124 38.016 37.7401 37.8761 37.7376 37.7352L37.6876 34.3352C37.8751 34.0352 38.0501 33.7227 38.2251 33.3977L41.2001 31.7477C41.3242 31.6788 41.4319 31.5839 41.5161 31.4696C41.6002 31.3553 41.6587 31.2241 41.6876 31.0852C42.1126 29.133 42.1126 27.1123 41.6876 25.1602ZM33.5001 28.1227C33.5001 29.2105 33.1775 30.2738 32.5731 31.1783C31.9688 32.0828 31.1098 32.7877 30.1048 33.204C29.0998 33.6203 27.994 33.7292 26.9271 33.517C25.8602 33.3048 24.8802 32.7809 24.111 32.0117C23.3418 31.2426 22.818 30.2625 22.6057 29.1957C22.3935 28.1288 22.5024 27.0229 22.9187 26.0179C23.335 25.0129 24.0399 24.1539 24.9444 23.5496C25.8489 22.9452 26.9123 22.6227 28.0001 22.6227C29.4587 22.6227 30.8577 23.2021 31.8891 24.2336C32.9206 25.265 33.5001 26.664 33.5001 28.1227Z" fill="#EC6657"></path></svg>