<svg width="56" height="57" viewBox="0 0 56 57" fill="none" xmlns="http://www.w3.org/2000/svg"><rect y="0.122559" width="56" height="56" rx="4" fill="#F2FAFF"></rect><path d="M39.45 17.2225C39.2824 17.1424 39.0961 17.1095 38.9111 17.1271C38.7262 17.1447 38.5495 17.2122 38.4 17.3225C34.8625 19.9725 31.8625 18.6975 28.4 17.21C24.9375 15.7225 20.8625 13.9725 16.4 17.3225H16.3875L16.3375 17.36L16.3125 17.385L16.275 17.4225L16.2375 17.46L16.2125 17.4975L16.175 17.535C16.175 17.5475 16.1625 17.56 16.15 17.5725L16.125 17.6225C16.125 17.635 16.1125 17.6475 16.1125 17.66C16.0996 17.6739 16.0909 17.6913 16.0875 17.71C16.075 17.7225 16.075 17.735 16.0625 17.76C16.05 17.785 16.05 17.785 16.05 17.7975C16.05 17.81 16.0375 17.835 16.0375 17.8475C16.0375 17.86 16.025 17.8725 16.025 17.885C16.025 17.8975 16.0125 17.9225 16.0125 17.935V17.9975C16.0125 18.01 16 18.035 16 18.0475V39.1225C16 39.3877 16.1054 39.6421 16.2929 39.8296C16.4804 40.0171 16.7348 40.1225 17 40.1225C17.2652 40.1225 17.5196 40.0171 17.7071 39.8296C17.8946 39.6421 18 39.3877 18 39.1225V33.635C21.3625 31.3725 24.2625 32.61 27.6 34.0475C29.6375 34.91 31.825 35.8475 34.175 35.8475C35.9 35.8475 37.7125 35.3475 39.6 33.9225C39.7235 33.8287 39.8238 33.7078 39.8931 33.5691C39.9625 33.4303 39.999 33.2776 40 33.1225V18.1225C39.9985 17.9367 39.9465 17.7548 39.8496 17.5963C39.7528 17.4378 39.6146 17.3086 39.45 17.2225Z" fill="#2188FF"></path></svg>