<svg width="56" height="57" viewBox="0 0 56 57" fill="none" xmlns="http://www.w3.org/2000/svg"><rect y="0.122559" width="56" height="56" rx="4" fill="#FDF8FF"></rect><path d="M39 16.1226H21C20.7348 16.1226 20.4804 16.2279 20.2929 16.4155C20.1054 16.603 20 16.8573 20 17.1226C20 17.3878 20.1054 17.6421 20.2929 17.8297C20.4804 18.0172 20.7348 18.1226 21 18.1226H38V35.1226C38 35.3878 38.1054 35.6421 38.2929 35.8297C38.4804 36.0172 38.7348 36.1226 39 36.1226C39.2652 36.1226 39.5196 36.0172 39.7071 35.8297C39.8946 35.6421 40 35.3878 40 35.1226V17.1226C40 16.8573 39.8946 16.603 39.7071 16.4155C39.5196 16.2279 39.2652 16.1226 39 16.1226Z" fill="#A852D0"></path><path d="M35 20.1226H17C16.4477 20.1226 16 20.5703 16 21.1226V39.1226C16 39.6748 16.4477 40.1226 17 40.1226H35C35.5523 40.1226 36 39.6748 36 39.1226V21.1226C36 20.5703 35.5523 20.1226 35 20.1226Z" fill="#A852D0"></path></svg>