<svg viewBox="0 0 160 49" fill="none" xmlns="http://www.w3.org/2000/svg" class="min-w-160 min-h-48"><rect y="0.623" width="160" height="48" rx="8" fill="#010101"></rect><path d="M79.748 26.908c-2.416 0-4.385 1.844-4.385 4.384 0 2.524 1.969 4.383 4.385 4.383 2.417 0 4.386-1.859 4.386-4.383 0-2.54-1.97-4.384-4.386-4.384zm0 7.042c-1.324 0-2.465-1.096-2.465-2.657 0-1.578 1.142-2.657 2.465-2.657 1.324 0 2.465 1.079 2.465 2.657 0 1.56-1.141 2.657-2.465 2.657zm-9.568-7.042c-2.416 0-4.385 1.844-4.385 4.384 0 2.524 1.97 4.383 4.385 4.383 2.417 0 4.387-1.859 4.387-4.383 0-2.54-1.97-4.384-4.386-4.384zm0 7.042c-1.324 0-2.465-1.096-2.465-2.657 0-1.578 1.142-2.657 2.465-2.657 1.325 0 2.466 1.079 2.466 2.657 0 1.56-1.141 2.657-2.466 2.657zm-11.379-5.696v1.86h4.436c-.133 1.046-.48 1.81-1.01 2.34-.645.648-1.655 1.362-3.426 1.362-2.73 0-4.865-2.209-4.865-4.948 0-2.74 2.135-4.949 4.865-4.949 1.473 0 2.549.582 3.343 1.329l1.307-1.312c-1.11-1.063-2.581-1.876-4.65-1.876-3.74 0-6.884 3.055-6.884 6.808 0 3.752 3.144 6.807 6.884 6.807 2.019 0 3.542-.664 4.732-1.91 1.225-1.228 1.606-2.956 1.606-4.35 0-.43-.033-.83-.1-1.162h-6.238v.001zm46.541 1.444c-.364-.979-1.473-2.79-3.74-2.79-2.25 0-4.121 1.777-4.121 4.384 0 2.457 1.854 4.383 4.336 4.383 2.002 0 3.16-1.228 3.641-1.942l-1.489-.997c-.497.73-1.176 1.212-2.152 1.212-.976 0-1.672-.448-2.119-1.329l5.842-2.424-.198-.497zm-5.958 1.462c-.05-1.695 1.308-2.557 2.285-2.557.761 0 1.406.382 1.622.93l-3.907 1.627zm-4.749 4.25h1.92V22.526h-1.92V35.41zM91.49 27.89h-.066c-.43-.516-1.258-.98-2.3-.98-2.185 0-4.187 1.926-4.187 4.4 0 2.457 2.002 4.367 4.187 4.367 1.043 0 1.87-.465 2.3-.995h.066v.63c0 1.677-.894 2.574-2.333 2.574-1.175 0-1.903-.846-2.201-1.56l-1.671.697c.48 1.162 1.753 2.59 3.872 2.59 2.25 0 4.154-1.328 4.154-4.566v-7.87h-1.82v.713h-.001zm-2.2 6.061c-1.324 0-2.433-1.113-2.433-2.64 0-1.546 1.109-2.674 2.433-2.674 1.306 0 2.332 1.128 2.332 2.673 0 1.528-1.026 2.641-2.332 2.641zm25.044-11.424h-4.593V35.41h1.916v-4.88h2.676c2.124 0 4.214-1.544 4.214-4.002 0-2.458-2.089-4.002-4.213-4.002zm.049 6.21h-2.726v-4.417h2.726c1.433 0 2.247 1.19 2.247 2.21 0 .997-.814 2.207-2.247 2.207zm11.846-1.85c-1.388 0-2.825.613-3.419 1.972l1.701.713c.363-.713 1.041-.946 1.751-.946.991 0 1.999.597 2.015 1.658v.133c-.347-.2-1.09-.497-1.999-.497-1.833 0-3.701 1.011-3.701 2.9 0 1.725 1.504 2.835 3.189 2.835 1.288 0 1.999-.58 2.445-1.26h.065v.994h1.851v-4.94c.001-2.286-1.702-3.562-3.898-3.562zm-.232 7.06c-.627 0-1.503-.314-1.503-1.094 0-.994 1.091-1.376 2.033-1.376.841 0 1.239.183 1.75.431a2.326 2.326 0 01-2.28 2.04zm10.871-6.779l-2.197 5.586h-.066l-2.28-5.586h-2.065l3.42 7.807-1.95 4.344h1.999l5.27-12.15h-2.131zm-17.263 8.243h1.915V22.526h-1.915V35.41zM58.465 15.047c0 .864-.255 1.552-.765 2.065-.58.61-1.336.915-2.264.915-.89 0-1.647-.309-2.268-.927-.623-.62-.934-1.387-.934-2.302 0-.916.311-1.683.934-2.301.621-.62 1.378-.93 2.268-.93.441 0 .864.088 1.264.26.402.173.723.403.964.69l-.541.544c-.408-.49-.97-.733-1.688-.733-.65 0-1.21.228-1.684.686-.473.458-.71 1.052-.71 1.783 0 .73.237 1.325.71 1.783a2.34 2.34 0 001.684.687c.688 0 1.262-.23 1.721-.691.298-.3.47-.717.517-1.252h-2.238v-.743h2.986c.03.161.044.317.044.466zM63.2 12.465h-2.806v1.96h2.531v.743h-2.53v1.96H63.2v.761h-3.599v-6.184h3.599v.76zM66.54 17.89h-.792v-5.425h-1.722v-.76h4.236v.76H66.54v5.424zM71.326 17.89v-6.185h.792v6.184h-.792zM75.63 17.89h-.792v-5.425h-1.722v-.76h4.235v.76H75.63v5.424zM85.369 17.09c-.606.625-1.36.937-2.26.937-.901 0-1.654-.312-2.26-.937-.605-.624-.907-1.389-.907-2.293 0-.904.302-1.669.908-2.293.605-.625 1.358-.938 2.259-.938.895 0 1.647.314 2.256.942.608.628.912 1.39.912 2.29 0 .903-.303 1.668-.908 2.292zm-3.935-.518a2.256 2.256 0 001.675.695c.66 0 1.219-.232 1.674-.695.456-.464.685-1.055.685-1.775s-.229-1.31-.685-1.775a2.255 2.255 0 00-1.674-.694 2.26 2.26 0 00-1.675.694c-.455.464-.684 1.056-.684 1.775 0 .72.23 1.311.684 1.775zM87.388 17.89v-6.185h.964l2.995 4.81h.034l-.034-1.191v-3.619h.792v6.184h-.827l-3.134-5.044h-.034l.034 1.191v3.853h-.79z" fill="#fff"></path><path d="M58.465 15.047c0 .864-.255 1.552-.765 2.065-.58.61-1.336.915-2.264.915-.89 0-1.647-.309-2.268-.927-.623-.62-.934-1.387-.934-2.302 0-.916.311-1.683.934-2.301.621-.62 1.378-.93 2.268-.93.441 0 .864.088 1.264.26.402.173.723.403.964.69l-.541.544c-.408-.49-.97-.733-1.688-.733-.65 0-1.21.228-1.684.686-.473.458-.71 1.052-.71 1.783 0 .73.237 1.325.71 1.783a2.34 2.34 0 001.684.687c.688 0 1.262-.23 1.721-.691.298-.3.47-.717.517-1.252h-2.238v-.743h2.986c.03.161.044.317.044.466zM63.2 12.465h-2.806v1.96h2.531v.743h-2.53v1.96H63.2v.761h-3.599v-6.184h3.599v.76zM66.54 17.89h-.792v-5.425h-1.722v-.76h4.236v.76H66.54v5.424zM71.326 17.89v-6.185h.792v6.184h-.792zM75.63 17.89h-.792v-5.425h-1.722v-.76h4.235v.76H75.63v5.424zM85.369 17.09c-.606.625-1.36.937-2.26.937-.901 0-1.654-.312-2.26-.937-.605-.624-.907-1.389-.907-2.293 0-.904.302-1.669.908-2.293.605-.625 1.358-.938 2.259-.938.895 0 1.647.314 2.256.942.608.628.912 1.39.912 2.29 0 .903-.303 1.668-.908 2.292zm-3.935-.518a2.256 2.256 0 001.675.695c.66 0 1.219-.232 1.674-.695.456-.464.685-1.055.685-1.775s-.229-1.31-.685-1.775a2.255 2.255 0 00-1.674-.694 2.26 2.26 0 00-1.675.694c-.455.464-.684 1.056-.684 1.775 0 .72.23 1.311.684 1.775zM87.388 17.89v-6.185h.964l2.995 4.81h.034l-.034-1.191v-3.619h.792v6.184h-.827l-3.134-5.044h-.034l.034 1.191v3.853h-.79z" stroke="#fff" stroke-width="0.164" stroke-miterlimit="10"></path><g filter="url(#play-store_svg__filter0_ii_701_30488)"><path d="M20.477 12.26c-.299.317-.475.81-.475 1.448v22.794c0 .639.176 1.13.475 1.448l.076.074L33.28 25.255v-.3l-12.726-12.77-.076.075zM37.52 29.512l-4.24-4.257v-.301l4.241-4.256.096.054 5.025 2.865c1.435.819 1.435 2.157 0 2.977l-5.025 2.865-.097.053z" fill="#fff" stroke="#010101" stroke-width="0.735"></path><g filter="url(#play-store_svg__filter1_i_701_30488)"><path d="M37.619 29.458l-4.34-4.353-12.8 12.845c.473.503 1.254.565 2.135.064l15.005-8.556z" fill="#fff"></path></g><path d="M37.619 29.458l-4.34-4.353-12.8 12.845c.473.503 1.254.565 2.135.064l15.005-8.556z" stroke="#010101" stroke-width="0.735"></path><path d="M37.617 20.75l-15.005-8.553c-.88-.502-1.662-.44-2.135.063L33.28 25.105l4.338-4.354z" fill="#fff" stroke="#010101" stroke-width="0.735"></path></g><defs><filter id="play-store_svg__filter0_ii_701_30488" x="19.634" y="11.483" width="24.451" height="27.244" filterUnits="userSpaceOnUse" color-interpolation-filters="sRGB"><feFlood flood-opacity="0" result="BackgroundImageFix"></feFlood><feBlend in="SourceGraphic" in2="BackgroundImageFix" result="shape"></feBlend><feColorMatrix in="SourceAlpha" values="0 0 0 0 0 0 0 0 0 0 0 0 0 0 0 0 0 0 127 0" result="hardAlpha"></feColorMatrix><feOffset dy="-0.123"></feOffset><feComposite in2="hardAlpha" operator="arithmetic" k2="-1" k3="1"></feComposite><feColorMatrix values="0 0 0 0 0 0 0 0 0 0 0 0 0 0 0 0 0 0 0.12 0"></feColorMatrix><feBlend in2="shape" result="effect1_innerShadow_701_30488"></feBlend><feColorMatrix in="SourceAlpha" values="0 0 0 0 0 0 0 0 0 0 0 0 0 0 0 0 0 0 127 0" result="hardAlpha"></feColorMatrix><feOffset dy="0.123"></feOffset><feComposite in2="hardAlpha" operator="arithmetic" k2="-1" k3="1"></feComposite><feColorMatrix values="0 0 0 0 1 0 0 0 0 1 0 0 0 0 1 0 0 0 0.25 0"></feColorMatrix><feBlend in2="effect1_innerShadow_701_30488" result="effect2_innerShadow_701_30488"></feBlend></filter><filter id="play-store_svg__filter1_i_701_30488" x="19.968" y="24.584" width="18.25" height="14.143" filterUnits="userSpaceOnUse" color-interpolation-filters="sRGB"><feFlood flood-opacity="0" result="BackgroundImageFix"></feFlood><feBlend in="SourceGraphic" in2="BackgroundImageFix" result="shape"></feBlend><feColorMatrix in="SourceAlpha" values="0 0 0 0 0 0 0 0 0 0 0 0 0 0 0 0 0 0 127 0" result="hardAlpha"></feColorMatrix><feOffset dy="-0.123"></feOffset><feComposite in2="hardAlpha" operator="arithmetic" k2="-1" k3="1"></feComposite><feColorMatrix values="0 0 0 0 0 0 0 0 0 0 0 0 0 0 0 0 0 0 0.08 0"></feColorMatrix><feBlend in2="shape" result="effect1_innerShadow_701_30488"></feBlend></filter></defs></svg>