<svg viewBox="0 0 160 49" fill="none" xmlns="http://www.w3.org/2000/svg" class="min-w-160 min-h-48"><rect y="0.623" width="160" height="48" rx="8" fill="#010101"></rect><path d="M103.341 23.171v2.506h-1.573v1.643h1.573v5.583c0 1.907.863 2.67 3.035 2.67.382 0 .745-.046 1.063-.1v-1.625c-.272.027-.445.045-.745.045-.972 0-1.399-.454-1.399-1.489V27.32h2.144v-1.643h-2.144v-2.506h-1.954zM112.973 35.709c2.89 0 4.662-1.934 4.662-5.139 0-3.186-1.781-5.129-4.662-5.129-2.89 0-4.672 1.943-4.672 5.13 0 3.204 1.772 5.138 4.672 5.138zm0-1.734c-1.7 0-2.654-1.244-2.654-3.405 0-2.142.954-3.395 2.654-3.395 1.69 0 2.653 1.253 2.653 3.395 0 2.152-.963 3.405-2.653 3.405zM119.151 35.518h1.954v-5.837c0-1.39 1.045-2.324 2.527-2.324.345 0 .927.063 1.09.118V25.55c-.209-.055-.581-.082-.872-.082-1.291 0-2.39.708-2.672 1.68h-.146v-1.516h-1.881v9.886zM129.574 27.102c1.445 0 2.39 1.008 2.435 2.56h-4.998c.109-1.543 1.118-2.56 2.563-2.56zM132 32.85c-.363.772-1.172 1.198-2.353 1.198-1.564 0-2.572-1.098-2.636-2.832v-.11H134v-.68c0-3.105-1.663-4.984-4.417-4.984-2.79 0-4.562 2.006-4.562 5.166 0 3.159 1.735 5.102 4.571 5.102 2.263 0 3.844-1.09 4.29-2.86H132zM90.527 31.867c.15 2.428 2.176 3.98 5.19 3.98 3.222 0 5.237-1.628 5.237-4.225 0-2.041-1.149-3.17-3.937-3.82l-1.498-.367c-1.77-.414-2.487-.969-2.487-1.938 0-1.223 1.112-2.023 2.78-2.023 1.582 0 2.674.78 2.872 2.032h2.054c-.123-2.286-2.138-3.895-4.898-3.895-2.968 0-4.946 1.609-4.946 4.027 0 1.995 1.121 3.18 3.58 3.754l1.752.424c1.799.423 2.59 1.044 2.59 2.08 0 1.204-1.243 2.079-2.939 2.079-1.818 0-3.08-.819-3.259-2.108h-2.091zM70.286 25.468c-1.345 0-2.508.672-3.108 1.798h-.146v-1.634h-1.881v13.172h1.954V34.02h.154c.519 1.044 1.636 1.661 3.045 1.661 2.5 0 4.09-1.97 4.09-5.11 0-3.142-1.59-5.103-4.108-5.103zm-.555 8.461c-1.635 0-2.662-1.289-2.662-3.35 0-2.07 1.027-3.359 2.671-3.359 1.655 0 2.645 1.262 2.645 3.35 0 2.097-.99 3.36-2.654 3.36zM81.23 25.468c-1.344 0-2.507.672-3.107 1.798h-.146v-1.634h-1.88v13.172h1.953V34.02h.154c.519 1.044 1.636 1.661 3.045 1.661 2.5 0 4.09-1.97 4.09-5.11 0-3.142-1.59-5.103-4.108-5.103zm-.553 8.461c-1.636 0-2.663-1.289-2.663-3.35 0-2.07 1.027-3.359 2.672-3.359 1.654 0 2.644 1.262 2.644 3.35 0 2.097-.99 3.36-2.653 3.36zM61.645 35.518h2.242L58.98 21.94h-2.27l-4.908 13.578h2.166l1.253-3.604h5.18l1.244 3.604zm-3.909-11.113h.16l1.969 5.74h-4.107l1.978-5.74zM53.115 11.7v6.55h2.368c1.954 0 3.085-1.203 3.085-3.296 0-2.06-1.14-3.254-3.085-3.254h-2.368zm1.018.926h1.236c1.359 0 2.163.862 2.163 2.342 0 1.502-.79 2.356-2.163 2.356h-1.236v-4.698zM62.033 18.345c1.445 0 2.332-.967 2.332-2.57 0-1.592-.891-2.564-2.331-2.564-1.446 0-2.336.972-2.336 2.565 0 1.602.886 2.57 2.335 2.57zm0-.867c-.85 0-1.326-.622-1.326-1.702 0-1.071.477-1.698 1.326-1.698.846 0 1.327.627 1.327 1.698 0 1.076-.481 1.702-1.327 1.702zM71.91 13.307h-.977l-.881 3.772h-.077l-1.018-3.772h-.936l-1.018 3.772h-.073l-.886-3.772h-.99l1.363 4.943h1.004l1.018-3.64h.077l1.022 3.64h1.014l1.358-4.943zM73.036 18.25h.977v-2.892c0-.771.459-1.253 1.181-1.253.723 0 1.068.395 1.068 1.19v2.955h.977v-3.2c0-1.176-.609-1.839-1.713-1.839-.745 0-1.236.332-1.477.88h-.073v-.784h-.94v4.943zM78.778 18.25h.976v-6.873h-.977v6.873zM83.429 18.345c1.445 0 2.331-.967 2.331-2.57 0-1.592-.89-2.564-2.331-2.564-1.445 0-2.336.972-2.336 2.565 0 1.602.886 2.57 2.336 2.57zm0-.867c-.85 0-1.327-.622-1.327-1.702 0-1.071.477-1.698 1.327-1.698.845 0 1.327.627 1.327 1.698 0 1.076-.482 1.702-1.327 1.702zM88.67 17.51c-.53 0-.917-.259-.917-.704 0-.436.309-.667.99-.712l1.21-.078v.414c0 .612-.546 1.08-1.282 1.08zm-.249.821c.65 0 1.19-.281 1.486-.776h.077v.695h.94v-3.377c0-1.044-.699-1.662-1.94-1.662-1.122 0-1.922.545-2.022 1.394h.945c.11-.35.487-.55 1.032-.55.668 0 1.013.296 1.013.818v.426l-1.34.078c-1.177.072-1.84.585-1.84 1.475 0 .903.695 1.48 1.649 1.48zM94.24 18.331c.682 0 1.259-.322 1.554-.862h.078v.78h.936v-6.872h-.977v2.715h-.073c-.268-.545-.84-.867-1.518-.867-1.25 0-2.054.99-2.054 2.55 0 1.567.795 2.556 2.054 2.556zm.277-4.23c.818 0 1.332.65 1.332 1.68 0 1.034-.51 1.674-1.332 1.674-.827 0-1.322-.63-1.322-1.68 0-1.039.5-1.674 1.322-1.674zM103.143 18.345c1.445 0 2.331-.967 2.331-2.57 0-1.592-.891-2.564-2.331-2.564-1.445 0-2.336.972-2.336 2.565 0 1.602.886 2.57 2.336 2.57zm0-.867c-.85 0-1.327-.622-1.327-1.702 0-1.071.477-1.698 1.327-1.698.845 0 1.327.627 1.327 1.698 0 1.076-.482 1.702-1.327 1.702zM106.767 18.25h.977v-2.892c0-.771.459-1.253 1.182-1.253.722 0 1.068.395 1.068 1.19v2.955h.977v-3.2c0-1.176-.609-1.839-1.714-1.839-.745 0-1.236.332-1.476.88h-.073v-.784h-.941v4.943zM115.47 12.076v1.253h-.786v.822h.786v2.791c0 .954.432 1.335 1.518 1.335.191 0 .372-.023.532-.05v-.813c-.137.014-.223.023-.373.023-.486 0-.7-.227-.7-.744V14.15h1.073v-.822h-1.073v-1.253h-.977zM118.831 18.25h.977v-2.887c0-.75.445-1.253 1.245-1.253.691 0 1.059.4 1.059 1.19v2.95h.977v-3.191c0-1.176-.65-1.843-1.704-1.843-.746 0-1.268.331-1.509.885h-.077v-2.724h-.968v6.873zM126.613 14.042c.723 0 1.195.504 1.218 1.28h-2.499c.054-.772.559-1.28 1.281-1.28zm1.213 2.873c-.181.386-.586.6-1.177.6-.781 0-1.285-.55-1.317-1.417v-.054h3.494v-.34c0-1.553-.831-2.493-2.208-2.493-1.395 0-2.281 1.003-2.281 2.583 0 1.58.867 2.551 2.285 2.551 1.132 0 1.922-.545 2.145-1.43h-.941zM41.2 24.375a5.455 5.455 0 012.58-4.541 5.616 5.616 0 00-4.37-2.36c-1.838-.193-3.62 1.099-4.557 1.099-.955 0-2.397-1.08-3.95-1.048a5.868 5.868 0 00-4.897 2.984c-2.118 3.661-.538 9.043 1.49 12.003 1.015 1.45 2.2 3.069 3.752 3.011 1.519-.063 2.086-.967 3.92-.967 1.815 0 2.347.967 3.93.93 1.63-.025 2.657-1.455 3.636-2.918a11.98 11.98 0 001.662-3.382 5.276 5.276 0 01-3.196-4.811zM38.21 15.527a5.325 5.325 0 001.22-3.817 5.43 5.43 0 00-3.512 1.815 5.113 5.113 0 00-1.252 3.676 4.542 4.542 0 003.544-1.674z" fill="#fff"></path></svg>