<svg viewBox="0 0 24 25" fill="none" xmlns="http://www.w3.org/2000/svg" class="w-20 h-20 md:w-24 md:h-24"><path d="M20.25 5.123H3.75a.75.75 0 00-.75.75v13.5c0 .414.336.75.75.75h16.5a.75.75 0 00.75-.75v-13.5a.75.75 0 00-.75-.75z" stroke="currentColor" stroke-width="1.5" stroke-linecap="round" stroke-linejoin="round"></path><path d="M5.737 13.362a.75.75 0 000 1.5v-1.5zm10.5 1.5a.75.75 0 100-1.5v1.5zm-10.5 0h10.5v-1.5h-10.5v1.5zM5.737 16.362a.75.75 0 000 1.5v-1.5zm6 1.5a.75.75 0 100-1.5v1.5zm-6 0h6v-1.5h-6v1.5z" fill="currentColor"></path><circle cx="7.133" cy="8.941" r="1.867" fill="currentColor"></circle></svg>