<svg xmlns="http://www.w3.org/2000/svg" xmlns:xlink="http://www.w3.org/1999/xlink" width="500" zoomAndPan="magnify" viewBox="0 0 375 374.999991" height="500" preserveAspectRatio="xMidYMid meet" version="1.0"><defs><g/><clipPath id="6227ad65cc"><path d="M 51.207031 154 L 115 154 L 115 217.910156 L 51.207031 217.910156 Z M 51.207031 154 " clip-rule="nonzero"/></clipPath><clipPath id="600952b3fb"><path d="M 93.34375 172.335938 L 145.816406 172.335938 L 145.816406 236.46875 L 93.34375 236.46875 Z M 93.34375 172.335938 " clip-rule="nonzero"/></clipPath><clipPath id="38c836338b"><path d="M 97.230469 176.40625 L 143 176.40625 L 143 231.378906 L 97.230469 231.378906 Z M 97.230469 176.40625 " clip-rule="nonzero"/></clipPath></defs><g clip-path="url(#6227ad65cc)"><path fill="#4d4d4d" d="M 55.992188 210.011719 L 76.386719 210.011719 C 76.835938 210.007812 77.207031 210.371094 77.207031 210.820312 C 77.207031 211.273438 76.835938 211.636719 76.386719 211.632812 L 55.992188 211.632812 C 55.542969 211.636719 55.175781 211.273438 55.175781 210.820312 C 55.175781 210.371094 55.542969 210.007812 55.992188 210.011719 Z M 55.992188 206.277344 L 78.410156 206.277344 C 78.863281 206.269531 79.234375 206.636719 79.234375 207.085938 C 79.234375 207.53125 78.863281 207.902344 78.410156 207.894531 L 55.992188 207.894531 C 55.542969 207.902344 55.175781 207.53125 55.175781 207.085938 C 55.175781 206.636719 55.542969 206.269531 55.992188 206.277344 Z M 93.609375 205.074219 C 94.328125 205.074219 95.035156 205.261719 95.664062 205.601562 C 96.273438 205.269531 96.984375 205.074219 97.722656 205.074219 C 100.097656 205.074219 102.039062 207.015625 102.039062 209.390625 C 102.039062 211.761719 100.097656 213.703125 97.722656 213.703125 C 96.976562 213.703125 96.273438 213.515625 95.664062 213.175781 C 95.035156 213.523438 94.328125 213.703125 93.609375 213.703125 C 91.230469 213.703125 89.289062 211.761719 89.289062 209.390625 C 89.289062 207.015625 91.230469 205.074219 93.609375 205.074219 Z M 55.933594 192.34375 L 63.40625 192.34375 C 63.855469 192.34375 64.21875 192.703125 64.21875 193.15625 L 64.21875 200.625 C 64.21875 201.074219 63.855469 201.433594 63.40625 201.433594 L 55.933594 201.433594 C 55.492188 201.433594 55.128906 201.074219 55.128906 200.625 L 55.128906 193.15625 C 55.128906 192.703125 55.492188 192.34375 55.933594 192.34375 Z M 55.222656 184.4375 C 53.007812 184.4375 51.207031 186.238281 51.207031 188.445312 L 51.207031 213.828125 C 51.207031 216.042969 53.007812 217.84375 55.222656 217.84375 L 102.40625 217.84375 C 104.613281 217.84375 106.421875 216.042969 106.421875 213.828125 L 106.421875 188.445312 C 106.421875 186.238281 104.613281 184.4375 102.40625 184.4375 Z M 106.863281 164.175781 L 71.980469 182.585938 L 103.023438 182.585938 C 105.230469 182.585938 107.871094 184.796875 107.871094 186.488281 L 107.871094 186.605469 L 112.847656 184.070312 C 114.8125 183.0625 115.546875 180.597656 114.511719 178.652344 Z M 99.144531 154.070312 C 98.496094 154.058594 97.835938 154.210938 97.230469 154.53125 L 55.503906 176.558594 C 53.550781 177.585938 52.796875 180.023438 53.828125 181.976562 L 54.144531 182.570312 L 58.0625 182.570312 L 103.816406 158.417969 L 102.648438 156.207031 C 101.941406 154.859375 100.566406 154.089844 99.144531 154.070312 " fill-opacity="1" fill-rule="nonzero"/></g><g clip-path="url(#600952b3fb)"><path fill="#ffffff" d="M 119.882812 236.382812 C 119.390625 236.382812 118.894531 236.238281 118.472656 235.941406 C 95.292969 219.898438 93.449219 204.28125 93.449219 185.53125 C 93.449219 184.34375 94.292969 183.320312 95.460938 183.101562 C 108.042969 180.695312 118.335938 173.410156 118.4375 173.335938 C 119.300781 172.71875 120.460938 172.71875 121.324219 173.335938 C 121.425781 173.40625 131.714844 180.695312 144.300781 183.101562 C 145.46875 183.320312 146.3125 184.34375 146.3125 185.53125 C 146.3125 204.28125 144.46875 219.898438 121.289062 235.941406 C 120.867188 236.238281 120.375 236.382812 119.882812 236.382812 Z M 98.410156 187.539062 C 98.542969 204.515625 100.671875 217.070312 119.882812 230.875 C 139.089844 217.070312 141.222656 204.515625 141.351562 187.539062 C 131.300781 185.222656 123.09375 180.40625 119.882812 178.332031 C 116.667969 180.40625 108.460938 185.21875 98.410156 187.539062 Z M 98.410156 187.539062 " fill-opacity="1" fill-rule="nonzero"/></g><path fill="#ffffff" d="M 138.433594 189.609375 C 130.195312 187.363281 123.347656 183.636719 120 181.613281 C 119.925781 181.566406 119.839844 181.566406 119.765625 181.613281 C 116.414062 183.636719 109.566406 187.363281 101.332031 189.609375 C 101.230469 189.640625 101.160156 189.730469 101.164062 189.835938 C 101.421875 202.875 102.996094 214.699219 119.742188 227.394531 C 119.785156 227.421875 119.832031 227.4375 119.882812 227.4375 C 119.933594 227.4375 119.976562 227.421875 120.019531 227.394531 C 136.765625 214.699219 138.34375 202.871094 138.601562 189.835938 C 138.605469 189.730469 138.535156 189.640625 138.433594 189.609375 Z M 133.421875 199.332031 L 121.09375 211.660156 C 120.5625 212.191406 119.867188 212.460938 119.167969 212.460938 C 118.476562 212.460938 117.785156 212.199219 117.253906 211.675781 L 110.089844 204.644531 C 109.015625 203.589844 108.996094 201.863281 110.054688 200.789062 C 111.109375 199.714844 112.835938 199.695312 113.910156 200.753906 L 119.148438 205.886719 L 129.5625 195.472656 C 130.628906 194.40625 132.355469 194.40625 133.421875 195.472656 C 134.488281 196.535156 134.488281 198.265625 133.421875 199.332031 Z M 133.421875 199.332031 " fill-opacity="1" fill-rule="nonzero"/><g clip-path="url(#38c836338b)"><path fill="#0097b2" d="M 120.023438 231.414062 C 119.601562 231.414062 119.175781 231.289062 118.8125 231.035156 C 98.902344 217.253906 97.320312 203.839844 97.320312 187.738281 C 97.320312 186.714844 98.042969 185.839844 99.046875 185.648438 C 109.855469 183.585938 118.695312 177.328125 118.785156 177.261719 C 119.523438 176.730469 120.519531 176.730469 121.261719 177.261719 C 121.347656 177.324219 130.1875 183.585938 140.996094 185.648438 C 142 185.839844 142.722656 186.714844 142.722656 187.738281 C 142.722656 203.839844 141.140625 217.253906 121.230469 231.035156 C 120.871094 231.289062 120.445312 231.414062 120.023438 231.414062 Z M 101.582031 189.464844 C 101.695312 204.042969 103.523438 214.824219 120.023438 226.683594 C 136.523438 214.824219 138.351562 204.042969 138.464844 189.464844 C 129.832031 187.472656 122.78125 183.335938 120.023438 181.554688 C 117.261719 183.335938 110.214844 187.472656 101.582031 189.464844 Z M 101.582031 189.464844 " fill-opacity="1" fill-rule="nonzero"/></g><path fill="#0097b2" d="M 135.957031 191.242188 C 128.882812 189.308594 123 186.109375 120.125 184.371094 C 120.0625 184.332031 119.988281 184.332031 119.921875 184.371094 C 117.046875 186.109375 111.164062 189.308594 104.089844 191.242188 C 104.003906 191.265625 103.945312 191.34375 103.945312 191.433594 C 104.167969 202.632812 105.523438 212.789062 119.90625 223.695312 C 119.941406 223.71875 119.980469 223.730469 120.023438 223.730469 C 120.066406 223.730469 120.105469 223.71875 120.144531 223.695312 C 134.527344 212.789062 135.878906 202.632812 136.101562 191.433594 C 136.105469 191.34375 136.042969 191.265625 135.957031 191.242188 Z M 131.65625 199.589844 L 121.066406 210.179688 C 120.609375 210.632812 120.011719 210.867188 119.410156 210.867188 C 118.816406 210.867188 118.222656 210.640625 117.769531 210.191406 L 111.613281 204.15625 C 110.691406 203.25 110.675781 201.765625 111.582031 200.84375 C 112.488281 199.917969 113.972656 199.902344 114.898438 200.8125 L 119.394531 205.222656 L 128.339844 196.277344 C 129.253906 195.359375 130.738281 195.359375 131.65625 196.277344 C 132.570312 197.191406 132.570312 198.675781 131.65625 199.589844 Z M 131.65625 199.589844 " fill-opacity="1" fill-rule="nonzero"/><g fill="#4d4d4d" fill-opacity="1"><g transform="translate(149.231747, 191.493653)"><g><path d="M 12.96875 -15.035156 L 6.519531 -24.535156 L 1.753906 -24.535156 L 1.753906 0 L 7.746094 0 L 7.746094 -12.195312 L 11.285156 -6.90625 L 14.613281 -6.90625 L 18.15625 -12.125 L 18.15625 0 L 24.113281 0 L 24.113281 -24.535156 L 19.417969 -24.535156 Z M 12.96875 -15.035156 "/></g></g></g><g fill="#4d4d4d" fill-opacity="1"><g transform="translate(175.235087, 191.493653)"><g><path d="M 20.046875 -9.53125 C 20.046875 -16.015625 15.140625 -19.242188 10.269531 -19.242188 C 5.328125 -19.242188 0.457031 -16.015625 0.457031 -9.53125 C 0.457031 -3.050781 5.328125 0.210938 10.234375 0.210938 C 14.160156 0.210938 18.050781 -1.859375 19.488281 -5.992188 L 13.492188 -5.992188 C 12.6875 -5.117188 11.53125 -4.695312 10.304688 -4.695312 C 8.621094 -4.730469 6.90625 -5.609375 6.238281 -7.359375 L 19.835938 -7.359375 C 19.976562 -8.0625 20.046875 -8.761719 20.046875 -9.53125 Z M 14.019531 -11.671875 L 6.449219 -11.671875 C 7.007812 -13.527344 8.515625 -14.441406 10.164062 -14.441406 C 11.953125 -14.441406 13.492188 -13.5625 14.019531 -11.671875 Z M 14.019531 -11.671875 "/></g></g></g><g fill="#4d4d4d" fill-opacity="1"><g transform="translate(197.663839, 191.493653)"><g><path d="M 9.671875 -19.277344 C 3.503906 -19.277344 0.492188 -14.929688 0.492188 -9.742188 C 0.492188 -4.519531 3.609375 0.246094 9.601562 0.246094 C 11.425781 0.246094 13.285156 -0.28125 14.578125 -1.894531 L 14.578125 0 L 20.082031 0 L 20.082031 -24.707031 L 14.578125 -24.707031 L 14.578125 -17.242188 C 13.316406 -18.679688 11.53125 -19.277344 9.671875 -19.277344 Z M 10.269531 -5.046875 C 7.464844 -5.046875 6.027344 -7.324219 6.027344 -9.601562 C 6.027344 -11.917969 7.429688 -14.195312 10.269531 -14.195312 C 12.652344 -14.195312 14.578125 -12.125 14.578125 -9.601562 C 14.578125 -7.078125 12.652344 -5.046875 10.269531 -5.046875 Z M 10.269531 -5.046875 "/></g></g></g><g fill="#4d4d4d" fill-opacity="1"><g transform="translate(220.197732, 191.493653)"><g><path d="M 0.769531 -23.132812 C 0.769531 -21.0625 2.453125 -20.046875 4.136719 -20.046875 C 5.746094 -20.046875 7.394531 -21.0625 7.394531 -23.132812 C 7.394531 -25.304688 5.710938 -26.355469 4.03125 -26.355469 C 2.417969 -26.355469 0.769531 -25.269531 0.769531 -23.132812 Z M 1.296875 -18.960938 L 6.90625 -18.960938 L 6.90625 0 L 1.296875 0 Z M 1.296875 -18.960938 "/></g></g></g><g fill="#4d4d4d" fill-opacity="1"><g transform="translate(229.589769, 191.493653)"><g><path d="M 7.183594 -12.230469 C 7.183594 -16.894531 10.550781 -19.207031 13.914062 -19.207031 C 16.71875 -19.207031 19.558594 -17.59375 20.363281 -14.335938 L 26.425781 -14.335938 C 25.65625 -20.644531 20.222656 -24.917969 13.914062 -24.917969 C 6.90625 -24.917969 1.226562 -19.453125 1.226562 -12.230469 C 1.226562 -5.011719 6.90625 0.351562 13.914062 0.351562 C 20.292969 0.351562 25.550781 -3.890625 26.460938 -10.304688 L 20.398438 -10.304688 C 19.625 -6.972656 16.789062 -5.292969 13.914062 -5.292969 C 10.550781 -5.292969 7.183594 -7.605469 7.183594 -12.230469 Z M 7.183594 -12.230469 "/></g></g></g><g fill="#4d4d4d" fill-opacity="1"><g transform="translate(257.170128, 191.493653)"><g><path d="M 9.671875 -19.277344 C 3.503906 -19.277344 0.492188 -14.929688 0.492188 -9.742188 C 0.492188 -4.519531 3.609375 0.246094 9.601562 0.246094 C 11.425781 0.246094 13.285156 -0.28125 14.578125 -1.894531 L 14.578125 0 L 20.082031 0 L 20.082031 -18.960938 L 14.578125 -18.960938 L 14.578125 -17 C 13.351562 -18.574219 11.53125 -19.277344 9.671875 -19.277344 Z M 10.269531 -5.046875 C 7.464844 -5.046875 6.027344 -7.324219 6.027344 -9.601562 C 6.027344 -11.917969 7.429688 -14.195312 10.269531 -14.195312 C 12.652344 -14.195312 14.578125 -12.125 14.578125 -9.601562 C 14.578125 -7.078125 12.652344 -5.046875 10.269531 -5.046875 Z M 10.269531 -5.046875 "/></g></g></g><g fill="#4d4d4d" fill-opacity="1"><g transform="translate(279.70402, 191.493653)"><g><path d="M 6.238281 -17.699219 L 6.027344 -18.960938 L 1.050781 -18.960938 L 1.050781 0 L 6.554688 0 L 6.554688 -10.515625 C 6.554688 -13.074219 8.585938 -14.125 10.585938 -14.160156 C 11.214844 -14.160156 11.882812 -14.054688 12.441406 -13.878906 L 12.511719 -19.066406 C 11.777344 -19.242188 11.039062 -19.347656 10.375 -19.347656 C 8.832031 -19.347656 7.464844 -18.855469 6.238281 -17.699219 Z M 6.238281 -17.699219 "/></g></g></g><g fill="#4d4d4d" fill-opacity="1"><g transform="translate(294.072435, 191.493653)"><g><path d="M 9.671875 -19.277344 C 3.503906 -19.277344 0.492188 -14.929688 0.492188 -9.742188 C 0.492188 -4.519531 3.609375 0.246094 9.601562 0.246094 C 11.425781 0.246094 13.285156 -0.28125 14.578125 -1.894531 L 14.578125 0 L 20.082031 0 L 20.082031 -24.707031 L 14.578125 -24.707031 L 14.578125 -17.242188 C 13.316406 -18.679688 11.53125 -19.277344 9.671875 -19.277344 Z M 10.269531 -5.046875 C 7.464844 -5.046875 6.027344 -7.324219 6.027344 -9.601562 C 6.027344 -11.917969 7.429688 -14.195312 10.269531 -14.195312 C 12.652344 -14.195312 14.578125 -12.125 14.578125 -9.601562 C 14.578125 -7.078125 12.652344 -5.046875 10.269531 -5.046875 Z M 10.269531 -5.046875 "/></g></g></g><g fill="#0097b2" fill-opacity="1"><g transform="translate(162.21351, 217.16184)"><g><path d="M 11.324219 0 L 11.324219 -13.296875 L 8.074219 -13.296875 L 8.074219 -8.28125 L 4.199219 -8.28125 L 4.199219 -13.296875 L 0.949219 -13.296875 L 0.949219 0 L 4.199219 0 L 4.199219 -5.148438 L 8.074219 -5.148438 L 8.074219 0 Z M 11.324219 0 "/></g></g></g><g fill="#0097b2" fill-opacity="1"><g transform="translate(177.524954, 217.16184)"><g><path d="M 10.867188 -5.167969 C 10.867188 -8.683594 8.207031 -10.429688 5.566406 -10.429688 C 2.886719 -10.429688 0.246094 -8.683594 0.246094 -5.167969 C 0.246094 -1.652344 2.886719 0.113281 5.546875 0.113281 C 7.675781 0.113281 9.785156 -1.007812 10.5625 -3.25 L 7.3125 -3.25 C 6.878906 -2.773438 6.25 -2.546875 5.585938 -2.546875 C 4.671875 -2.566406 3.742188 -3.039062 3.382812 -3.988281 L 10.753906 -3.988281 C 10.828125 -4.371094 10.867188 -4.75 10.867188 -5.167969 Z M 7.597656 -6.324219 L 3.496094 -6.324219 C 3.800781 -7.332031 4.617188 -7.828125 5.507812 -7.828125 C 6.476562 -7.828125 7.3125 -7.351562 7.597656 -6.324219 Z M 7.597656 -6.324219 "/></g></g></g><g fill="#0097b2" fill-opacity="1"><g transform="translate(192.532454, 217.16184)"><g><path d="M 5.242188 -10.449219 C 1.898438 -10.449219 0.265625 -8.09375 0.265625 -5.28125 C 0.265625 -2.449219 1.957031 0.132812 5.207031 0.132812 C 6.191406 0.132812 7.199219 -0.152344 7.902344 -1.027344 L 7.902344 0 L 10.886719 0 L 10.886719 -10.277344 L 7.902344 -10.277344 L 7.902344 -9.214844 C 7.238281 -10.070312 6.25 -10.449219 5.242188 -10.449219 Z M 5.566406 -2.734375 C 4.046875 -2.734375 3.265625 -3.96875 3.265625 -5.207031 C 3.265625 -6.460938 4.027344 -7.695312 5.566406 -7.695312 C 6.859375 -7.695312 7.902344 -6.574219 7.902344 -5.207031 C 7.902344 -3.835938 6.859375 -2.734375 5.566406 -2.734375 Z M 5.566406 -2.734375 "/></g></g></g><g fill="#0097b2" fill-opacity="1"><g transform="translate(207.596946, 217.16184)"><g><path d="M 3.496094 -13.296875 L 0.457031 -13.296875 L 0.457031 0 L 3.496094 0 Z M 3.496094 -13.296875 "/></g></g></g><g fill="#0097b2" fill-opacity="1"><g transform="translate(215.176969, 217.16184)"><g><path d="M 6.839844 0.0195312 L 6.742188 -2.449219 C 6.476562 -2.394531 6.175781 -2.355469 5.890625 -2.355469 C 5.167969 -2.355469 4.503906 -2.640625 4.503906 -3.550781 L 4.503906 -7.597656 L 6.648438 -7.597656 L 6.648438 -10.164062 L 4.503906 -10.164062 L 4.503906 -12.386719 L 1.519531 -12.121094 L 1.519531 -10.164062 L 0.171875 -10.164062 L 0.171875 -7.597656 L 1.519531 -7.597656 L 1.519531 -3.550781 C 1.519531 -0.894531 2.886719 0.171875 5.148438 0.171875 C 5.660156 0.171875 6.230469 0.113281 6.839844 0.0195312 Z M 6.839844 0.0195312 "/></g></g></g><g fill="#0097b2" fill-opacity="1"><g transform="translate(225.910342, 217.16184)"><g><path d="M 3.476562 -9.25 L 3.476562 -13.394531 L 0.457031 -13.394531 L 0.457031 0 L 3.628906 0 L 3.628906 -5.585938 C 3.628906 -6.820312 4.710938 -7.597656 5.605469 -7.597656 C 6.421875 -7.597656 7.179688 -7.011719 7.179688 -5.640625 L 7.179688 0 L 10.203125 0 L 10.203125 -5.660156 C 10.238281 -8.226562 9.421875 -10.390625 6.496094 -10.429688 C 5.394531 -10.429688 4.21875 -10.164062 3.476562 -9.25 Z M 3.476562 -9.25 "/></g></g></g><g fill="#0097b2" fill-opacity="1"><g transform="translate(240.290969, 217.16184)"><g/></g></g><g fill="#0097b2" fill-opacity="1"><g transform="translate(247.908974, 217.16184)"><g><path d="M 3.894531 -6.628906 C 3.894531 -9.15625 5.71875 -10.410156 7.542969 -10.410156 C 9.0625 -10.410156 10.601562 -9.535156 11.039062 -7.769531 L 14.324219 -7.769531 C 13.90625 -11.191406 10.960938 -13.507812 7.542969 -13.507812 C 3.742188 -13.507812 0.664062 -10.542969 0.664062 -6.628906 C 0.664062 -2.714844 3.742188 0.191406 7.542969 0.191406 C 11 0.191406 13.847656 -2.109375 14.34375 -5.585938 L 11.054688 -5.585938 C 10.636719 -3.78125 9.101562 -2.867188 7.542969 -2.867188 C 5.71875 -2.867188 3.894531 -4.121094 3.894531 -6.628906 Z M 3.894531 -6.628906 "/></g></g></g><g fill="#0097b2" fill-opacity="1"><g transform="translate(265.708902, 217.16184)"><g><path d="M 5.242188 -10.449219 C 1.898438 -10.449219 0.265625 -8.09375 0.265625 -5.28125 C 0.265625 -2.449219 1.957031 0.132812 5.207031 0.132812 C 6.191406 0.132812 7.199219 -0.152344 7.902344 -1.027344 L 7.902344 0 L 10.886719 0 L 10.886719 -10.277344 L 7.902344 -10.277344 L 7.902344 -9.214844 C 7.238281 -10.070312 6.25 -10.449219 5.242188 -10.449219 Z M 5.566406 -2.734375 C 4.046875 -2.734375 3.265625 -3.96875 3.265625 -5.207031 C 3.265625 -6.460938 4.027344 -7.695312 5.566406 -7.695312 C 6.859375 -7.695312 7.902344 -6.574219 7.902344 -5.207031 C 7.902344 -3.835938 6.859375 -2.734375 5.566406 -2.734375 Z M 5.566406 -2.734375 "/></g></g></g><g fill="#0097b2" fill-opacity="1"><g transform="translate(280.7734, 217.16184)"><g><path d="M 3.382812 -9.59375 L 3.265625 -10.277344 L 0.570312 -10.277344 L 0.570312 0 L 3.550781 0 L 3.550781 -5.699219 C 3.550781 -7.085938 4.65625 -7.65625 5.738281 -7.675781 C 6.078125 -7.675781 6.441406 -7.617188 6.742188 -7.523438 L 6.78125 -10.335938 C 6.382812 -10.429688 5.984375 -10.488281 5.625 -10.488281 C 4.789062 -10.488281 4.046875 -10.21875 3.382812 -9.59375 Z M 3.382812 -9.59375 "/></g></g></g><g fill="#0097b2" fill-opacity="1"><g transform="translate(291.411804, 217.16184)"><g><path d="M 5.242188 -10.449219 C 1.898438 -10.449219 0.265625 -8.09375 0.265625 -5.28125 C 0.265625 -2.449219 1.957031 0.132812 5.207031 0.132812 C 6.191406 0.132812 7.199219 -0.152344 7.902344 -1.027344 L 7.902344 0 L 10.886719 0 L 10.886719 -13.394531 L 7.902344 -13.394531 L 7.902344 -9.347656 C 7.21875 -10.125 6.25 -10.449219 5.242188 -10.449219 Z M 5.566406 -2.734375 C 4.046875 -2.734375 3.265625 -3.96875 3.265625 -5.207031 C 3.265625 -6.460938 4.027344 -7.695312 5.566406 -7.695312 C 6.859375 -7.695312 7.902344 -6.574219 7.902344 -5.207031 C 7.902344 -3.835938 6.859375 -2.734375 5.566406 -2.734375 Z M 5.566406 -2.734375 "/></g></g></g></svg>