<svg xmlns="http://www.w3.org/2000/svg" xmlns:xlink="http://www.w3.org/1999/xlink" width="500" zoomAndPan="magnify" viewBox="0 0 375 374.999991" height="500" preserveAspectRatio="xMidYMid meet" version="1.0"><defs><g/><clipPath id="59d94aa895"><path d="M 43.601562 146.039062 L 107.734375 146.039062 L 107.734375 210.171875 L 43.601562 210.171875 Z M 43.601562 146.039062 " clip-rule="nonzero"/></clipPath><clipPath id="4ed56bbb8b"><path d="M 85.738281 165 L 138.210938 165 L 138.210938 228.730469 L 85.738281 228.730469 Z M 85.738281 165 " clip-rule="nonzero"/></clipPath><clipPath id="9d2d49fd68"><path d="M 89.625 169 L 135.433594 169 L 135.433594 223.636719 L 89.625 223.636719 Z M 89.625 169 " clip-rule="nonzero"/></clipPath></defs><g clip-path="url(#59d94aa895)"><path fill="#4d4d4d" d="M 48.386719 202.273438 L 68.78125 202.273438 C 69.234375 202.265625 69.601562 202.628906 69.601562 203.082031 C 69.601562 203.535156 69.234375 203.898438 68.78125 203.890625 L 48.386719 203.890625 C 47.9375 203.898438 47.570312 203.535156 47.570312 203.082031 C 47.570312 202.628906 47.9375 202.265625 48.386719 202.273438 Z M 48.386719 198.535156 L 70.808594 198.535156 C 71.257812 198.53125 71.628906 198.898438 71.628906 199.34375 C 71.628906 199.792969 71.257812 200.160156 70.808594 200.15625 L 48.386719 200.15625 C 47.9375 200.160156 47.570312 199.792969 47.570312 199.34375 C 47.570312 198.898438 47.9375 198.53125 48.386719 198.535156 Z M 86.003906 197.335938 C 86.722656 197.335938 87.429688 197.523438 88.058594 197.863281 C 88.667969 197.527344 89.378906 197.335938 90.121094 197.335938 C 92.492188 197.335938 94.433594 199.277344 94.433594 201.648438 C 94.433594 204.023438 92.492188 205.964844 90.121094 205.964844 C 89.371094 205.964844 88.667969 205.777344 88.058594 205.4375 C 87.429688 205.78125 86.722656 205.964844 86.003906 205.964844 C 83.625 205.964844 81.683594 204.023438 81.683594 201.648438 C 81.683594 199.277344 83.625 197.335938 86.003906 197.335938 Z M 48.328125 184.601562 L 55.804688 184.601562 C 56.25 184.601562 56.613281 184.964844 56.613281 185.417969 L 56.613281 192.886719 C 56.613281 193.332031 56.25 193.695312 55.804688 193.695312 L 48.328125 193.695312 C 47.886719 193.695312 47.527344 193.332031 47.527344 192.886719 L 47.527344 185.417969 C 47.527344 184.964844 47.886719 184.601562 48.328125 184.601562 Z M 47.617188 176.699219 C 45.402344 176.699219 43.601562 178.5 43.601562 180.707031 L 43.601562 206.089844 C 43.601562 208.300781 45.402344 210.101562 47.617188 210.101562 L 94.800781 210.101562 C 97.007812 210.101562 98.816406 208.300781 98.816406 206.089844 L 98.816406 180.707031 C 98.816406 178.5 97.007812 176.699219 94.800781 176.699219 Z M 99.257812 156.433594 L 64.375 174.847656 L 95.417969 174.847656 C 97.625 174.847656 100.265625 177.054688 100.265625 178.746094 L 100.265625 178.867188 L 105.242188 176.328125 C 107.207031 175.320312 107.941406 172.859375 106.90625 170.910156 Z M 91.539062 146.328125 C 90.890625 146.316406 90.230469 146.46875 89.625 146.792969 L 47.898438 168.816406 C 45.945312 169.847656 45.191406 172.28125 46.222656 174.234375 L 46.539062 174.828125 L 50.457031 174.828125 L 96.210938 150.675781 L 95.046875 148.46875 C 94.335938 147.121094 92.960938 146.351562 91.539062 146.328125 " fill-opacity="1" fill-rule="nonzero"/></g><g clip-path="url(#4ed56bbb8b)"><path fill="#ffffff" d="M 112.277344 228.640625 C 111.785156 228.640625 111.289062 228.496094 110.867188 228.203125 C 87.6875 212.15625 85.84375 196.539062 85.84375 177.789062 C 85.84375 176.601562 86.6875 175.578125 87.855469 175.359375 C 100.4375 172.953125 110.730469 165.667969 110.832031 165.59375 C 111.695312 164.976562 112.855469 164.976562 113.71875 165.59375 C 113.820312 165.667969 124.109375 172.953125 136.695312 175.359375 C 137.863281 175.582031 138.707031 176.601562 138.707031 177.789062 C 138.707031 196.539062 136.863281 212.15625 113.683594 228.203125 C 113.261719 228.496094 112.769531 228.640625 112.277344 228.640625 Z M 90.804688 179.800781 C 90.9375 196.773438 93.066406 209.328125 112.277344 223.136719 C 131.488281 209.328125 133.617188 196.773438 133.75 179.800781 C 123.699219 177.480469 115.488281 172.664062 112.277344 170.589844 C 109.0625 172.664062 100.855469 177.480469 90.804688 179.800781 Z M 90.804688 179.800781 " fill-opacity="1" fill-rule="nonzero"/></g><path fill="#ffffff" d="M 130.828125 181.867188 C 122.589844 179.621094 115.742188 175.894531 112.394531 173.871094 C 112.324219 173.824219 112.234375 173.824219 112.160156 173.871094 C 108.808594 175.894531 101.960938 179.621094 93.726562 181.867188 C 93.625 181.898438 93.554688 181.988281 93.558594 182.09375 C 93.816406 195.132812 95.390625 206.957031 112.136719 219.652344 C 112.179688 219.683594 112.226562 219.699219 112.277344 219.699219 C 112.328125 219.699219 112.371094 219.683594 112.414062 219.652344 C 129.160156 206.957031 130.738281 195.132812 130.996094 182.09375 C 131 181.988281 130.929688 181.898438 130.828125 181.867188 Z M 125.816406 191.589844 L 113.492188 203.917969 C 112.957031 204.449219 112.261719 204.71875 111.5625 204.71875 C 110.871094 204.71875 110.179688 204.457031 109.648438 203.933594 L 102.484375 196.90625 C 101.410156 195.851562 101.390625 194.125 102.449219 193.050781 C 103.503906 191.972656 105.230469 191.957031 106.308594 193.011719 L 111.542969 198.148438 L 121.957031 187.734375 C 123.023438 186.667969 124.753906 186.667969 125.816406 187.734375 C 126.882812 188.796875 126.882812 190.523438 125.816406 191.589844 Z M 125.816406 191.589844 " fill-opacity="1" fill-rule="nonzero"/><g clip-path="url(#9d2d49fd68)"><path fill="#0097b2" d="M 112.417969 223.671875 C 111.996094 223.671875 111.570312 223.550781 111.207031 223.296875 C 91.300781 209.515625 89.714844 196.101562 89.714844 179.996094 C 89.714844 178.976562 90.441406 178.097656 91.441406 177.910156 C 102.25 175.84375 111.089844 169.585938 111.179688 169.523438 C 111.917969 168.992188 112.914062 168.992188 113.65625 169.523438 C 113.742188 169.585938 122.582031 175.84375 133.390625 177.910156 C 134.394531 178.101562 135.121094 178.976562 135.121094 179.996094 C 135.121094 196.101562 133.535156 209.515625 113.628906 223.296875 C 113.265625 223.550781 112.84375 223.671875 112.417969 223.671875 Z M 93.976562 181.722656 C 94.089844 196.300781 95.921875 207.085938 112.417969 218.945312 C 128.917969 207.085938 130.746094 196.300781 130.859375 181.722656 C 122.226562 179.730469 115.179688 175.59375 112.417969 173.8125 C 109.660156 175.59375 102.609375 179.730469 93.976562 181.722656 Z M 93.976562 181.722656 " fill-opacity="1" fill-rule="nonzero"/></g><path fill="#0097b2" d="M 128.351562 183.5 C 121.277344 181.570312 115.394531 178.367188 112.519531 176.628906 C 112.457031 176.59375 112.382812 176.59375 112.316406 176.628906 C 109.441406 178.367188 103.558594 181.570312 96.484375 183.5 C 96.398438 183.527344 96.339844 183.601562 96.339844 183.691406 C 96.5625 194.894531 97.917969 205.050781 112.300781 215.953125 C 112.335938 215.976562 112.375 215.992188 112.417969 215.992188 C 112.460938 215.992188 112.5 215.976562 112.539062 215.953125 C 126.921875 205.050781 128.277344 194.890625 128.496094 183.691406 C 128.5 183.601562 128.4375 183.527344 128.351562 183.5 Z M 124.050781 191.851562 L 113.460938 202.4375 C 113.003906 202.894531 112.40625 203.125 111.804688 203.125 C 111.210938 203.125 110.617188 202.902344 110.164062 202.453125 L 104.007812 196.414062 C 103.085938 195.507812 103.070312 194.027344 103.976562 193.101562 C 104.882812 192.179688 106.367188 192.164062 107.292969 193.070312 L 111.789062 197.480469 L 120.734375 188.535156 C 121.648438 187.621094 123.132812 187.621094 124.050781 188.535156 C 124.964844 189.449219 124.964844 190.933594 124.050781 191.851562 Z M 124.050781 191.851562 " fill-opacity="1" fill-rule="nonzero"/><g fill="#4d4d4d" fill-opacity="1"><g transform="translate(144.132461, 185.822244)"><g><path d="M 11.839844 -13.726562 L 5.949219 -22.398438 L 1.601562 -22.398438 L 1.601562 0 L 7.070312 0 L 7.070312 -11.132812 L 10.300781 -6.304688 L 13.34375 -6.304688 L 16.574219 -11.070312 L 16.574219 0 L 22.011719 0 L 22.011719 -22.398438 L 17.726562 -22.398438 Z M 11.839844 -13.726562 "/></g></g></g><g fill="#4d4d4d" fill-opacity="1"><g transform="translate(167.87063, 185.822244)"><g><path d="M 18.300781 -8.703125 C 18.300781 -14.621094 13.820312 -17.566406 9.375 -17.566406 C 4.863281 -17.566406 0.414062 -14.621094 0.414062 -8.703125 C 0.414062 -2.785156 4.863281 0.191406 9.34375 0.191406 C 12.925781 0.191406 16.476562 -1.695312 17.789062 -5.472656 L 12.316406 -5.472656 C 11.582031 -4.671875 10.527344 -4.289062 9.40625 -4.289062 C 7.871094 -4.320312 6.304688 -5.121094 5.695312 -6.71875 L 18.109375 -6.71875 C 18.238281 -7.359375 18.300781 -8 18.300781 -8.703125 Z M 12.796875 -10.65625 L 5.886719 -10.65625 C 6.398438 -12.351562 7.773438 -13.183594 9.277344 -13.183594 C 10.910156 -13.183594 12.316406 -12.382812 12.796875 -10.65625 Z M 12.796875 -10.65625 "/></g></g></g><g fill="#4d4d4d" fill-opacity="1"><g transform="translate(188.345596, 185.822244)"><g><path d="M 8.832031 -17.597656 C 3.199219 -17.597656 0.449219 -13.628906 0.449219 -8.894531 C 0.449219 -4.128906 3.296875 0.222656 8.765625 0.222656 C 10.429688 0.222656 12.125 -0.257812 13.308594 -1.726562 L 13.308594 0 L 18.332031 0 L 18.332031 -22.554688 L 13.308594 -22.554688 L 13.308594 -15.742188 C 12.15625 -17.054688 10.527344 -17.597656 8.832031 -17.597656 Z M 9.375 -4.605469 C 6.816406 -4.605469 5.503906 -6.6875 5.503906 -8.765625 C 5.503906 -10.878906 6.78125 -12.957031 9.375 -12.957031 C 11.550781 -12.957031 13.308594 -11.070312 13.308594 -8.765625 C 13.308594 -6.464844 11.550781 -4.605469 9.375 -4.605469 Z M 9.375 -4.605469 "/></g></g></g><g fill="#4d4d4d" fill-opacity="1"><g transform="translate(208.916545, 185.822244)"><g><path d="M 0.703125 -21.117188 C 0.703125 -19.230469 2.238281 -18.300781 3.777344 -18.300781 C 5.246094 -18.300781 6.75 -19.230469 6.75 -21.117188 C 6.75 -23.101562 5.214844 -24.058594 3.679688 -24.058594 C 2.207031 -24.058594 0.703125 -23.070312 0.703125 -21.117188 Z M 1.183594 -17.308594 L 6.304688 -17.308594 L 6.304688 0 L 1.183594 0 Z M 1.183594 -17.308594 "/></g></g></g><g fill="#4d4d4d" fill-opacity="1"><g transform="translate(217.490435, 185.822244)"><g><path d="M 6.558594 -11.167969 C 6.558594 -15.421875 9.628906 -17.535156 12.703125 -17.535156 C 15.261719 -17.535156 17.851562 -16.0625 18.589844 -13.085938 L 24.125 -13.085938 C 23.421875 -18.84375 18.460938 -22.75 12.703125 -22.75 C 6.304688 -22.75 1.121094 -17.757812 1.121094 -11.167969 C 1.121094 -4.574219 6.304688 0.320312 12.703125 0.320312 C 18.523438 0.320312 23.324219 -3.550781 24.15625 -9.40625 L 18.621094 -9.40625 C 17.917969 -6.367188 15.324219 -4.832031 12.703125 -4.832031 C 9.628906 -4.832031 6.558594 -6.941406 6.558594 -11.167969 Z M 6.558594 -11.167969 "/></g></g></g><g fill="#4d4d4d" fill-opacity="1"><g transform="translate(242.668247, 185.822244)"><g><path d="M 5.855469 -15.582031 L 5.855469 -22.554688 L 0.769531 -22.554688 L 0.769531 0 L 6.109375 0 L 6.109375 -9.40625 C 6.109375 -11.484375 7.933594 -12.796875 9.4375 -12.796875 C 10.8125 -12.796875 12.09375 -11.804688 12.09375 -9.503906 L 12.09375 0 L 17.179688 0 L 17.179688 -9.535156 C 17.246094 -13.855469 15.871094 -17.5 10.941406 -17.566406 C 9.085938 -17.566406 7.101562 -17.117188 5.855469 -15.582031 Z M 5.855469 -15.582031 "/></g></g></g><g fill="#4d4d4d" fill-opacity="1"><g transform="translate(262.087473, 185.822244)"><g><path d="M 8.832031 -17.597656 C 3.199219 -17.597656 0.449219 -13.628906 0.449219 -8.894531 C 0.449219 -4.128906 3.296875 0.222656 8.765625 0.222656 C 10.429688 0.222656 12.125 -0.257812 13.308594 -1.726562 L 13.308594 0 L 18.332031 0 L 18.332031 -17.308594 L 13.308594 -17.308594 L 13.308594 -15.515625 C 12.191406 -16.957031 10.527344 -17.597656 8.832031 -17.597656 Z M 9.375 -4.605469 C 6.816406 -4.605469 5.503906 -6.6875 5.503906 -8.765625 C 5.503906 -10.878906 6.78125 -12.957031 9.375 -12.957031 C 11.550781 -12.957031 13.308594 -11.070312 13.308594 -8.765625 C 13.308594 -6.464844 11.550781 -4.605469 9.375 -4.605469 Z M 9.375 -4.605469 "/></g></g></g><g fill="#4d4d4d" fill-opacity="1"><g transform="translate(282.658422, 185.822244)"><g><path d="M 5.695312 -16.15625 L 5.503906 -17.308594 L 0.960938 -17.308594 L 0.960938 0 L 5.984375 0 L 5.984375 -9.597656 C 5.984375 -11.933594 7.839844 -12.894531 9.664062 -12.925781 C 10.238281 -12.925781 10.847656 -12.828125 11.359375 -12.671875 L 11.421875 -17.40625 C 10.75 -17.566406 10.078125 -17.660156 9.46875 -17.660156 C 8.0625 -17.660156 6.816406 -17.214844 5.695312 -16.15625 Z M 5.695312 -16.15625 "/></g></g></g><g fill="#4d4d4d" fill-opacity="1"><g transform="translate(295.775192, 185.822244)"><g><path d="M 11.519531 0.03125 L 11.359375 -4.128906 C 10.910156 -4.03125 10.398438 -3.96875 9.917969 -3.96875 C 8.703125 -3.96875 7.582031 -4.449219 7.582031 -5.984375 L 7.582031 -12.796875 L 11.199219 -12.796875 L 11.199219 -17.117188 L 7.582031 -17.117188 L 7.582031 -20.859375 L 2.558594 -20.414062 L 2.558594 -17.117188 L 0.289062 -17.117188 L 0.289062 -12.796875 L 2.558594 -12.796875 L 2.558594 -5.984375 C 2.558594 -1.503906 4.863281 0.289062 8.671875 0.289062 C 9.535156 0.289062 10.496094 0.191406 11.519531 0.03125 Z M 11.519531 0.03125 "/></g></g></g><g fill="#0097b2" fill-opacity="1"><g transform="translate(146.233837, 212.122265)"><g><path d="M 11.917969 0 L 11.917969 -13.996094 L 8.496094 -13.996094 L 8.496094 -8.71875 L 4.417969 -8.71875 L 4.417969 -13.996094 L 1 -13.996094 L 1 0 L 4.417969 0 L 4.417969 -5.417969 L 8.496094 -5.417969 L 8.496094 0 Z M 11.917969 0 "/></g></g></g><g fill="#0097b2" fill-opacity="1"><g transform="translate(162.348643, 212.122265)"><g><path d="M 11.4375 -5.4375 C 11.4375 -9.136719 8.636719 -10.976562 5.859375 -10.976562 C 3.039062 -10.976562 0.261719 -9.136719 0.261719 -5.4375 C 0.261719 -1.738281 3.039062 0.121094 5.839844 0.121094 C 8.078125 0.121094 10.296875 -1.058594 11.117188 -3.417969 L 7.699219 -3.417969 C 7.238281 -2.917969 6.578125 -2.679688 5.878906 -2.679688 C 4.917969 -2.699219 3.9375 -3.199219 3.558594 -4.199219 L 11.316406 -4.199219 C 11.398438 -4.597656 11.4375 -5 11.4375 -5.4375 Z M 7.996094 -6.660156 L 3.679688 -6.660156 C 4 -7.71875 4.859375 -8.238281 5.796875 -8.238281 C 6.816406 -8.238281 7.699219 -7.738281 7.996094 -6.660156 Z M 7.996094 -6.660156 "/></g></g></g><g fill="#0097b2" fill-opacity="1"><g transform="translate(178.143576, 212.122265)"><g><path d="M 5.519531 -10.996094 C 2 -10.996094 0.28125 -8.519531 0.28125 -5.558594 C 0.28125 -2.578125 2.058594 0.140625 5.480469 0.140625 C 6.519531 0.140625 7.578125 -0.160156 8.316406 -1.078125 L 8.316406 0 L 11.457031 0 L 11.457031 -10.816406 L 8.316406 -10.816406 L 8.316406 -9.699219 C 7.617188 -10.597656 6.578125 -10.996094 5.519531 -10.996094 Z M 5.859375 -2.878906 C 4.257812 -2.878906 3.4375 -4.179688 3.4375 -5.480469 C 3.4375 -6.796875 4.238281 -8.097656 5.859375 -8.097656 C 7.21875 -8.097656 8.316406 -6.917969 8.316406 -5.480469 C 8.316406 -4.039062 7.21875 -2.878906 5.859375 -2.878906 Z M 5.859375 -2.878906 "/></g></g></g><g fill="#0097b2" fill-opacity="1"><g transform="translate(193.998486, 212.122265)"><g><path d="M 3.679688 -13.996094 L 0.480469 -13.996094 L 0.480469 0 L 3.679688 0 Z M 3.679688 -13.996094 "/></g></g></g><g fill="#0097b2" fill-opacity="1"><g transform="translate(201.976499, 212.122265)"><g><path d="M 7.199219 0.0195312 L 7.097656 -2.578125 C 6.816406 -2.519531 6.5 -2.480469 6.199219 -2.480469 C 5.4375 -2.480469 4.738281 -2.78125 4.738281 -3.738281 L 4.738281 -7.996094 L 7 -7.996094 L 7 -10.699219 L 4.738281 -10.699219 L 4.738281 -13.035156 L 1.597656 -12.757812 L 1.597656 -10.699219 L 0.179688 -10.699219 L 0.179688 -7.996094 L 1.597656 -7.996094 L 1.597656 -3.738281 C 1.597656 -0.941406 3.039062 0.179688 5.417969 0.179688 C 5.957031 0.179688 6.558594 0.121094 7.199219 0.0195312 Z M 7.199219 0.0195312 "/></g></g></g><g fill="#0097b2" fill-opacity="1"><g transform="translate(213.273208, 212.122265)"><g><path d="M 3.660156 -9.738281 L 3.660156 -14.097656 L 0.480469 -14.097656 L 0.480469 0 L 3.820312 0 L 3.820312 -5.878906 C 3.820312 -7.179688 4.957031 -7.996094 5.898438 -7.996094 C 6.757812 -7.996094 7.558594 -7.378906 7.558594 -5.9375 L 7.558594 0 L 10.738281 0 L 10.738281 -5.957031 C 10.777344 -8.65625 9.917969 -10.9375 6.839844 -10.976562 C 5.679688 -10.976562 4.4375 -10.699219 3.660156 -9.738281 Z M 3.660156 -9.738281 "/></g></g></g><g fill="#0097b2" fill-opacity="1"><g transform="translate(228.408402, 212.122265)"><g/></g></g><g fill="#0097b2" fill-opacity="1"><g transform="translate(236.426401, 212.122265)"><g><path d="M 4.097656 -6.976562 C 4.097656 -9.636719 6.019531 -10.957031 7.9375 -10.957031 C 9.539062 -10.957031 11.15625 -10.039062 11.617188 -8.179688 L 15.078125 -8.179688 C 14.636719 -11.777344 11.539062 -14.214844 7.9375 -14.214844 C 3.9375 -14.214844 0.699219 -11.097656 0.699219 -6.976562 C 0.699219 -2.859375 3.9375 0.199219 7.9375 0.199219 C 11.578125 0.199219 14.578125 -2.21875 15.097656 -5.878906 L 11.636719 -5.878906 C 11.195312 -3.980469 9.578125 -3.019531 7.9375 -3.019531 C 6.019531 -3.019531 4.097656 -4.339844 4.097656 -6.976562 Z M 4.097656 -6.976562 "/></g></g></g><g fill="#0097b2" fill-opacity="1"><g transform="translate(255.160172, 212.122265)"><g><path d="M 5.519531 -10.996094 C 2 -10.996094 0.28125 -8.519531 0.28125 -5.558594 C 0.28125 -2.578125 2.058594 0.140625 5.480469 0.140625 C 6.519531 0.140625 7.578125 -0.160156 8.316406 -1.078125 L 8.316406 0 L 11.457031 0 L 11.457031 -10.816406 L 8.316406 -10.816406 L 8.316406 -9.699219 C 7.617188 -10.597656 6.578125 -10.996094 5.519531 -10.996094 Z M 5.859375 -2.878906 C 4.257812 -2.878906 3.4375 -4.179688 3.4375 -5.480469 C 3.4375 -6.796875 4.238281 -8.097656 5.859375 -8.097656 C 7.21875 -8.097656 8.316406 -6.917969 8.316406 -5.480469 C 8.316406 -4.039062 7.21875 -2.878906 5.859375 -2.878906 Z M 5.859375 -2.878906 "/></g></g></g><g fill="#0097b2" fill-opacity="1"><g transform="translate(271.015078, 212.122265)"><g><path d="M 3.558594 -10.097656 L 3.4375 -10.816406 L 0.601562 -10.816406 L 0.601562 0 L 3.738281 0 L 3.738281 -6 C 3.738281 -7.457031 4.898438 -8.058594 6.039062 -8.078125 C 6.398438 -8.078125 6.777344 -8.019531 7.097656 -7.917969 L 7.136719 -10.878906 C 6.71875 -10.976562 6.296875 -11.039062 5.917969 -11.039062 C 5.039062 -11.039062 4.257812 -10.757812 3.558594 -10.097656 Z M 3.558594 -10.097656 "/></g></g></g><g fill="#0097b2" fill-opacity="1"><g transform="translate(282.211817, 212.122265)"><g><path d="M 5.519531 -10.996094 C 2 -10.996094 0.28125 -8.519531 0.28125 -5.558594 C 0.28125 -2.578125 2.058594 0.140625 5.480469 0.140625 C 6.519531 0.140625 7.578125 -0.160156 8.316406 -1.078125 L 8.316406 0 L 11.457031 0 L 11.457031 -14.097656 L 8.316406 -14.097656 L 8.316406 -9.835938 C 7.597656 -10.65625 6.578125 -10.996094 5.519531 -10.996094 Z M 5.859375 -2.878906 C 4.257812 -2.878906 3.4375 -4.179688 3.4375 -5.480469 C 3.4375 -6.796875 4.238281 -8.097656 5.859375 -8.097656 C 7.21875 -8.097656 8.316406 -6.917969 8.316406 -5.480469 C 8.316406 -4.039062 7.21875 -2.878906 5.859375 -2.878906 Z M 5.859375 -2.878906 "/></g></g></g></svg>