<svg xmlns="http://www.w3.org/2000/svg" xmlns:xlink="http://www.w3.org/1999/xlink" width="500" zoomAndPan="magnify" viewBox="0 0 375 374.999991" height="500" preserveAspectRatio="xMidYMid meet" version="1.0"><defs><g/><clipPath id="3e96bc734f"><path d="M 144.773438 118.277344 L 208.90625 118.277344 L 208.90625 182.410156 L 144.773438 182.410156 Z M 144.773438 118.277344 " clip-rule="nonzero"/></clipPath><clipPath id="8dc904a524"><path d="M 187 137 L 239.382812 137 L 239.382812 200.96875 L 187 200.96875 Z M 187 137 " clip-rule="nonzero"/></clipPath><clipPath id="e91665174f"><path d="M 190.796875 141 L 236.605469 141 L 236.605469 195.878906 L 190.796875 195.878906 Z M 190.796875 141 " clip-rule="nonzero"/></clipPath></defs><g clip-path="url(#3e96bc734f)"><path fill="#4d4d4d" d="M 149.558594 174.511719 L 169.953125 174.511719 C 170.40625 174.507812 170.773438 174.867188 170.773438 175.320312 C 170.773438 175.773438 170.40625 176.136719 169.953125 176.132812 L 149.558594 176.132812 C 149.109375 176.136719 148.742188 175.773438 148.742188 175.320312 C 148.742188 174.867188 149.109375 174.507812 149.558594 174.511719 Z M 149.558594 170.777344 L 171.980469 170.777344 C 172.429688 170.769531 172.800781 171.136719 172.800781 171.585938 C 172.800781 172.03125 172.429688 172.398438 171.980469 172.394531 L 149.558594 172.394531 C 149.109375 172.398438 148.742188 172.03125 148.742188 171.585938 C 148.742188 171.136719 149.109375 170.769531 149.558594 170.777344 Z M 187.175781 169.574219 C 187.894531 169.574219 188.601562 169.761719 189.230469 170.101562 C 189.839844 169.769531 190.550781 169.574219 191.289062 169.574219 C 193.664062 169.574219 195.605469 171.515625 195.605469 173.890625 C 195.605469 176.261719 193.664062 178.203125 191.289062 178.203125 C 190.542969 178.203125 189.839844 178.015625 189.230469 177.675781 C 188.601562 178.023438 187.894531 178.203125 187.175781 178.203125 C 184.796875 178.203125 182.855469 176.261719 182.855469 173.890625 C 182.855469 171.515625 184.796875 169.574219 187.175781 169.574219 Z M 149.5 156.839844 L 156.976562 156.839844 C 157.421875 156.839844 157.785156 157.203125 157.785156 157.65625 L 157.785156 165.125 C 157.785156 165.570312 157.421875 165.933594 156.976562 165.933594 L 149.5 165.933594 C 149.058594 165.933594 148.695312 165.570312 148.695312 165.125 L 148.695312 157.65625 C 148.695312 157.203125 149.058594 156.839844 149.5 156.839844 Z M 148.789062 148.9375 C 146.574219 148.9375 144.773438 150.738281 144.773438 152.945312 L 144.773438 178.328125 C 144.773438 180.542969 146.574219 182.34375 148.789062 182.34375 L 195.972656 182.34375 C 198.179688 182.34375 199.988281 180.542969 199.988281 178.328125 L 199.988281 152.945312 C 199.988281 150.738281 198.179688 148.9375 195.972656 148.9375 Z M 200.429688 128.675781 L 165.546875 147.085938 L 196.589844 147.085938 C 198.796875 147.085938 201.4375 149.292969 201.4375 150.988281 L 201.4375 151.105469 L 206.414062 148.570312 C 208.378906 147.5625 209.113281 145.097656 208.078125 143.152344 Z M 192.710938 118.566406 C 192.0625 118.558594 191.402344 118.710938 190.796875 119.03125 L 149.070312 141.058594 C 147.117188 142.085938 146.363281 144.523438 147.394531 146.476562 L 147.710938 147.070312 L 151.628906 147.070312 L 197.382812 122.917969 L 196.214844 120.707031 C 195.507812 119.359375 194.132812 118.589844 192.710938 118.566406 " fill-opacity="1" fill-rule="nonzero"/></g><g clip-path="url(#8dc904a524)"><path fill="#ffffff" d="M 213.449219 200.882812 C 212.957031 200.882812 212.460938 200.738281 212.039062 200.441406 C 188.859375 184.398438 187.015625 168.78125 187.015625 150.03125 C 187.015625 148.84375 187.859375 147.820312 189.027344 147.597656 C 201.609375 145.195312 211.902344 137.910156 212.003906 137.835938 C 212.867188 137.21875 214.027344 137.21875 214.890625 137.835938 C 214.992188 137.90625 225.28125 145.195312 237.867188 147.597656 C 239.035156 147.820312 239.878906 148.84375 239.878906 150.03125 C 239.878906 168.78125 238.035156 184.398438 214.855469 200.441406 C 214.433594 200.738281 213.941406 200.882812 213.449219 200.882812 Z M 191.976562 152.039062 C 192.109375 169.011719 194.238281 181.566406 213.449219 195.375 C 232.660156 181.566406 234.789062 169.011719 234.917969 152.039062 C 224.871094 149.722656 216.660156 144.90625 213.449219 142.832031 C 210.234375 144.90625 202.027344 149.71875 191.976562 152.039062 Z M 191.976562 152.039062 " fill-opacity="1" fill-rule="nonzero"/></g><path fill="#ffffff" d="M 232 154.109375 C 223.761719 151.859375 216.914062 148.132812 213.566406 146.109375 C 213.492188 146.066406 213.40625 146.066406 213.332031 146.109375 C 209.980469 148.132812 203.132812 151.859375 194.898438 154.109375 C 194.796875 154.136719 194.726562 154.230469 194.730469 154.332031 C 194.988281 167.375 196.5625 179.199219 213.308594 191.894531 C 213.351562 191.921875 213.398438 191.9375 213.449219 191.9375 C 213.5 191.9375 213.542969 191.921875 213.585938 191.894531 C 230.332031 179.199219 231.910156 167.371094 232.167969 154.332031 C 232.171875 154.230469 232.101562 154.136719 232 154.109375 Z M 226.988281 163.832031 L 214.664062 176.160156 C 214.128906 176.6875 213.433594 176.960938 212.734375 176.960938 C 212.042969 176.960938 211.351562 176.699219 210.820312 176.175781 L 203.65625 169.144531 C 202.582031 168.089844 202.5625 166.363281 203.621094 165.289062 C 204.675781 164.214844 206.402344 164.195312 207.480469 165.253906 L 212.714844 170.386719 L 223.128906 159.972656 C 224.195312 158.90625 225.925781 158.90625 226.988281 159.972656 C 228.054688 161.035156 228.054688 162.765625 226.988281 163.832031 Z M 226.988281 163.832031 " fill-opacity="1" fill-rule="nonzero"/><g clip-path="url(#e91665174f)"><path fill="#0097b2" d="M 213.589844 195.914062 C 213.167969 195.914062 212.742188 195.789062 212.378906 195.535156 C 192.46875 181.753906 190.886719 168.339844 190.886719 152.238281 C 190.886719 151.214844 191.613281 150.335938 192.613281 150.148438 C 203.421875 148.082031 212.261719 141.824219 212.351562 141.761719 C 213.089844 141.230469 214.085938 141.230469 214.828125 141.761719 C 214.914062 141.824219 223.753906 148.082031 234.5625 150.148438 C 235.566406 150.339844 236.292969 151.214844 236.292969 152.238281 C 236.292969 168.339844 234.707031 181.753906 214.796875 195.535156 C 214.4375 195.789062 214.015625 195.914062 213.589844 195.914062 Z M 195.148438 153.964844 C 195.261719 168.542969 197.089844 179.324219 213.589844 191.183594 C 230.089844 179.324219 231.917969 168.542969 232.03125 153.964844 C 223.398438 151.972656 216.347656 147.835938 213.589844 146.054688 C 210.832031 147.835938 203.78125 151.96875 195.148438 153.964844 Z M 195.148438 153.964844 " fill-opacity="1" fill-rule="nonzero"/></g><path fill="#0097b2" d="M 229.523438 155.738281 C 222.449219 153.808594 216.566406 150.609375 213.691406 148.871094 C 213.628906 148.832031 213.554688 148.832031 213.488281 148.871094 C 210.613281 150.609375 204.730469 153.808594 197.65625 155.738281 C 197.570312 155.765625 197.511719 155.84375 197.511719 155.933594 C 197.734375 167.132812 199.089844 177.289062 213.472656 188.191406 C 213.507812 188.21875 213.546875 188.230469 213.589844 188.230469 C 213.632812 188.230469 213.671875 188.21875 213.710938 188.191406 C 228.09375 177.289062 229.445312 167.132812 229.667969 155.933594 C 229.671875 155.84375 229.609375 155.765625 229.523438 155.738281 Z M 225.222656 164.089844 L 214.632812 174.679688 C 214.175781 175.132812 213.578125 175.367188 212.976562 175.367188 C 212.382812 175.367188 211.789062 175.140625 211.335938 174.691406 L 205.179688 168.65625 C 204.257812 167.75 204.242188 166.265625 205.148438 165.34375 C 206.054688 164.417969 207.539062 164.402344 208.464844 165.3125 L 212.960938 169.722656 L 221.90625 160.777344 C 222.820312 159.859375 224.304688 159.859375 225.222656 160.777344 C 226.136719 161.691406 226.136719 163.175781 225.222656 164.089844 Z M 225.222656 164.089844 " fill-opacity="1" fill-rule="nonzero"/><g fill="#4d4d4d" fill-opacity="1"><g transform="translate(111.906984, 224.759412)"><g><path d="M 12.078125 -14.003906 L 6.070312 -22.847656 L 1.632812 -22.847656 L 1.632812 0 L 7.214844 0 L 7.214844 -11.359375 L 10.511719 -6.429688 L 13.609375 -6.429688 L 16.90625 -11.292969 L 16.90625 0 L 22.457031 0 L 22.457031 -22.847656 L 18.082031 -22.847656 Z M 12.078125 -14.003906 "/></g></g></g><g fill="#4d4d4d" fill-opacity="1"><g transform="translate(136.123941, 224.759412)"><g><path d="M 18.671875 -8.878906 C 18.671875 -14.917969 14.101562 -17.917969 9.5625 -17.917969 C 4.960938 -17.917969 0.425781 -14.917969 0.425781 -8.878906 C 0.425781 -2.839844 4.960938 0.195312 9.53125 0.195312 C 13.1875 0.195312 16.808594 -1.730469 18.148438 -5.582031 L 12.566406 -5.582031 C 11.816406 -4.765625 10.738281 -4.375 9.597656 -4.375 C 8.03125 -4.40625 6.429688 -5.222656 5.808594 -6.855469 L 18.472656 -6.855469 C 18.605469 -7.507812 18.671875 -8.160156 18.671875 -8.878906 Z M 13.054688 -10.871094 L 6.003906 -10.871094 C 6.527344 -12.597656 7.929688 -13.449219 9.464844 -13.449219 C 11.128906 -13.449219 12.566406 -12.632812 13.054688 -10.871094 Z M 13.054688 -10.871094 "/></g></g></g><g fill="#4d4d4d" fill-opacity="1"><g transform="translate(157.011878, 224.759412)"><g><path d="M 9.007812 -17.953125 C 3.265625 -17.953125 0.457031 -13.90625 0.457031 -9.074219 C 0.457031 -4.210938 3.363281 0.226562 8.945312 0.226562 C 10.640625 0.226562 12.371094 -0.261719 13.578125 -1.761719 L 13.578125 0 L 18.703125 0 L 18.703125 -23.011719 L 13.578125 -23.011719 L 13.578125 -16.058594 C 12.402344 -17.398438 10.738281 -17.953125 9.007812 -17.953125 Z M 9.5625 -4.699219 C 6.953125 -4.699219 5.613281 -6.820312 5.613281 -8.945312 C 5.613281 -11.097656 6.917969 -13.21875 9.5625 -13.21875 C 11.78125 -13.21875 13.578125 -11.292969 13.578125 -8.945312 C 13.578125 -6.59375 11.78125 -4.699219 9.5625 -4.699219 Z M 9.5625 -4.699219 "/></g></g></g><g fill="#4d4d4d" fill-opacity="1"><g transform="translate(177.997733, 224.759412)"><g><path d="M 0.71875 -21.542969 C 0.71875 -19.617188 2.285156 -18.671875 3.851562 -18.671875 C 5.351562 -18.671875 6.886719 -19.617188 6.886719 -21.542969 C 6.886719 -23.566406 5.320312 -24.546875 3.753906 -24.546875 C 2.253906 -24.546875 0.71875 -23.535156 0.71875 -21.542969 Z M 1.207031 -17.660156 L 6.429688 -17.660156 L 6.429688 0 L 1.207031 0 Z M 1.207031 -17.660156 "/></g></g></g><g fill="#4d4d4d" fill-opacity="1"><g transform="translate(186.744554, 224.759412)"><g><path d="M 6.691406 -11.390625 C 6.691406 -15.734375 9.824219 -17.886719 12.957031 -17.886719 C 15.570312 -17.886719 18.214844 -16.386719 18.964844 -13.351562 L 24.609375 -13.351562 C 23.894531 -19.226562 18.832031 -23.207031 12.957031 -23.207031 C 6.429688 -23.207031 1.140625 -18.117188 1.140625 -11.390625 C 1.140625 -4.667969 6.429688 0.328125 12.957031 0.328125 C 18.898438 0.328125 23.792969 -3.625 24.644531 -9.597656 L 18.996094 -9.597656 C 18.277344 -6.496094 15.632812 -4.929688 12.957031 -4.929688 C 9.824219 -4.929688 6.691406 -7.082031 6.691406 -11.390625 Z M 6.691406 -11.390625 "/></g></g></g><g fill="#4d4d4d" fill-opacity="1"><g transform="translate(212.430191, 224.759412)"><g><path d="M 9.007812 -17.953125 C 3.265625 -17.953125 0.457031 -13.90625 0.457031 -9.074219 C 0.457031 -4.210938 3.363281 0.226562 8.945312 0.226562 C 10.640625 0.226562 12.371094 -0.261719 13.578125 -1.761719 L 13.578125 0 L 18.703125 0 L 18.703125 -17.660156 L 13.578125 -17.660156 L 13.578125 -15.832031 C 12.4375 -17.300781 10.738281 -17.953125 9.007812 -17.953125 Z M 9.5625 -4.699219 C 6.953125 -4.699219 5.613281 -6.820312 5.613281 -8.945312 C 5.613281 -11.097656 6.917969 -13.21875 9.5625 -13.21875 C 11.78125 -13.21875 13.578125 -11.292969 13.578125 -8.945312 C 13.578125 -6.59375 11.78125 -4.699219 9.5625 -4.699219 Z M 9.5625 -4.699219 "/></g></g></g><g fill="#4d4d4d" fill-opacity="1"><g transform="translate(233.416046, 224.759412)"><g><path d="M 5.808594 -16.484375 L 5.613281 -17.660156 L 0.980469 -17.660156 L 0.980469 0 L 6.105469 0 L 6.105469 -9.792969 C 6.105469 -12.175781 7.996094 -13.152344 9.855469 -13.1875 C 10.445312 -13.1875 11.066406 -13.089844 11.585938 -12.925781 L 11.652344 -17.757812 C 10.96875 -17.917969 10.28125 -18.015625 9.660156 -18.015625 C 8.226562 -18.015625 6.953125 -17.558594 5.808594 -16.484375 Z M 5.808594 -16.484375 "/></g></g></g><g fill="#4d4d4d" fill-opacity="1"><g transform="translate(246.797376, 224.759412)"><g><path d="M 9.007812 -17.953125 C 3.265625 -17.953125 0.457031 -13.90625 0.457031 -9.074219 C 0.457031 -4.210938 3.363281 0.226562 8.945312 0.226562 C 10.640625 0.226562 12.371094 -0.261719 13.578125 -1.761719 L 13.578125 0 L 18.703125 0 L 18.703125 -23.011719 L 13.578125 -23.011719 L 13.578125 -16.058594 C 12.402344 -17.398438 10.738281 -17.953125 9.007812 -17.953125 Z M 9.5625 -4.699219 C 6.953125 -4.699219 5.613281 -6.820312 5.613281 -8.945312 C 5.613281 -11.097656 6.917969 -13.21875 9.5625 -13.21875 C 11.78125 -13.21875 13.578125 -11.292969 13.578125 -8.945312 C 13.578125 -6.59375 11.78125 -4.699219 9.5625 -4.699219 Z M 9.5625 -4.699219 "/></g></g></g><g fill="#0097b2" fill-opacity="1"><g transform="translate(117.843982, 251.221815)"><g><path d="M 11.917969 0 L 11.917969 -13.996094 L 8.496094 -13.996094 L 8.496094 -8.71875 L 4.417969 -8.71875 L 4.417969 -13.996094 L 1 -13.996094 L 1 0 L 4.417969 0 L 4.417969 -5.417969 L 8.496094 -5.417969 L 8.496094 0 Z M 11.917969 0 "/></g></g></g><g fill="#0097b2" fill-opacity="1"><g transform="translate(133.958788, 251.221815)"><g><path d="M 11.4375 -5.4375 C 11.4375 -9.136719 8.636719 -10.976562 5.859375 -10.976562 C 3.039062 -10.976562 0.261719 -9.136719 0.261719 -5.4375 C 0.261719 -1.738281 3.039062 0.121094 5.839844 0.121094 C 8.078125 0.121094 10.296875 -1.058594 11.117188 -3.417969 L 7.699219 -3.417969 C 7.238281 -2.917969 6.578125 -2.679688 5.878906 -2.679688 C 4.917969 -2.699219 3.9375 -3.199219 3.558594 -4.199219 L 11.316406 -4.199219 C 11.398438 -4.597656 11.4375 -5 11.4375 -5.4375 Z M 7.996094 -6.660156 L 3.679688 -6.660156 C 4 -7.71875 4.859375 -8.238281 5.796875 -8.238281 C 6.816406 -8.238281 7.699219 -7.738281 7.996094 -6.660156 Z M 7.996094 -6.660156 "/></g></g></g><g fill="#0097b2" fill-opacity="1"><g transform="translate(149.753721, 251.221815)"><g><path d="M 5.519531 -10.996094 C 2 -10.996094 0.28125 -8.519531 0.28125 -5.558594 C 0.28125 -2.578125 2.058594 0.140625 5.480469 0.140625 C 6.519531 0.140625 7.578125 -0.160156 8.316406 -1.078125 L 8.316406 0 L 11.457031 0 L 11.457031 -10.816406 L 8.316406 -10.816406 L 8.316406 -9.699219 C 7.617188 -10.597656 6.578125 -10.996094 5.519531 -10.996094 Z M 5.859375 -2.878906 C 4.257812 -2.878906 3.4375 -4.179688 3.4375 -5.480469 C 3.4375 -6.796875 4.238281 -8.097656 5.859375 -8.097656 C 7.21875 -8.097656 8.316406 -6.917969 8.316406 -5.480469 C 8.316406 -4.039062 7.21875 -2.878906 5.859375 -2.878906 Z M 5.859375 -2.878906 "/></g></g></g><g fill="#0097b2" fill-opacity="1"><g transform="translate(165.608631, 251.221815)"><g><path d="M 3.679688 -13.996094 L 0.480469 -13.996094 L 0.480469 0 L 3.679688 0 Z M 3.679688 -13.996094 "/></g></g></g><g fill="#0097b2" fill-opacity="1"><g transform="translate(173.586644, 251.221815)"><g><path d="M 7.199219 0.0195312 L 7.097656 -2.578125 C 6.816406 -2.519531 6.5 -2.480469 6.199219 -2.480469 C 5.4375 -2.480469 4.738281 -2.78125 4.738281 -3.738281 L 4.738281 -7.996094 L 7 -7.996094 L 7 -10.699219 L 4.738281 -10.699219 L 4.738281 -13.035156 L 1.597656 -12.757812 L 1.597656 -10.699219 L 0.179688 -10.699219 L 0.179688 -7.996094 L 1.597656 -7.996094 L 1.597656 -3.738281 C 1.597656 -0.941406 3.039062 0.179688 5.417969 0.179688 C 5.957031 0.179688 6.558594 0.121094 7.199219 0.0195312 Z M 7.199219 0.0195312 "/></g></g></g><g fill="#0097b2" fill-opacity="1"><g transform="translate(184.883353, 251.221815)"><g><path d="M 3.660156 -9.738281 L 3.660156 -14.097656 L 0.480469 -14.097656 L 0.480469 0 L 3.820312 0 L 3.820312 -5.878906 C 3.820312 -7.179688 4.957031 -7.996094 5.898438 -7.996094 C 6.757812 -7.996094 7.558594 -7.378906 7.558594 -5.9375 L 7.558594 0 L 10.738281 0 L 10.738281 -5.957031 C 10.777344 -8.65625 9.917969 -10.9375 6.839844 -10.976562 C 5.679688 -10.976562 4.4375 -10.699219 3.660156 -9.738281 Z M 3.660156 -9.738281 "/></g></g></g><g fill="#0097b2" fill-opacity="1"><g transform="translate(200.018547, 251.221815)"><g/></g></g><g fill="#0097b2" fill-opacity="1"><g transform="translate(208.036546, 251.221815)"><g><path d="M 4.097656 -6.976562 C 4.097656 -9.636719 6.019531 -10.957031 7.9375 -10.957031 C 9.539062 -10.957031 11.15625 -10.039062 11.617188 -8.179688 L 15.078125 -8.179688 C 14.636719 -11.777344 11.539062 -14.214844 7.9375 -14.214844 C 3.9375 -14.214844 0.699219 -11.097656 0.699219 -6.976562 C 0.699219 -2.859375 3.9375 0.199219 7.9375 0.199219 C 11.578125 0.199219 14.578125 -2.21875 15.097656 -5.878906 L 11.636719 -5.878906 C 11.195312 -3.980469 9.578125 -3.019531 7.9375 -3.019531 C 6.019531 -3.019531 4.097656 -4.339844 4.097656 -6.976562 Z M 4.097656 -6.976562 "/></g></g></g><g fill="#0097b2" fill-opacity="1"><g transform="translate(226.770317, 251.221815)"><g><path d="M 5.519531 -10.996094 C 2 -10.996094 0.28125 -8.519531 0.28125 -5.558594 C 0.28125 -2.578125 2.058594 0.140625 5.480469 0.140625 C 6.519531 0.140625 7.578125 -0.160156 8.316406 -1.078125 L 8.316406 0 L 11.457031 0 L 11.457031 -10.816406 L 8.316406 -10.816406 L 8.316406 -9.699219 C 7.617188 -10.597656 6.578125 -10.996094 5.519531 -10.996094 Z M 5.859375 -2.878906 C 4.257812 -2.878906 3.4375 -4.179688 3.4375 -5.480469 C 3.4375 -6.796875 4.238281 -8.097656 5.859375 -8.097656 C 7.21875 -8.097656 8.316406 -6.917969 8.316406 -5.480469 C 8.316406 -4.039062 7.21875 -2.878906 5.859375 -2.878906 Z M 5.859375 -2.878906 "/></g></g></g><g fill="#0097b2" fill-opacity="1"><g transform="translate(242.625224, 251.221815)"><g><path d="M 3.558594 -10.097656 L 3.4375 -10.816406 L 0.601562 -10.816406 L 0.601562 0 L 3.738281 0 L 3.738281 -6 C 3.738281 -7.457031 4.898438 -8.058594 6.039062 -8.078125 C 6.398438 -8.078125 6.777344 -8.019531 7.097656 -7.917969 L 7.136719 -10.878906 C 6.71875 -10.976562 6.296875 -11.039062 5.917969 -11.039062 C 5.039062 -11.039062 4.257812 -10.757812 3.558594 -10.097656 Z M 3.558594 -10.097656 "/></g></g></g><g fill="#0097b2" fill-opacity="1"><g transform="translate(253.821962, 251.221815)"><g><path d="M 5.519531 -10.996094 C 2 -10.996094 0.28125 -8.519531 0.28125 -5.558594 C 0.28125 -2.578125 2.058594 0.140625 5.480469 0.140625 C 6.519531 0.140625 7.578125 -0.160156 8.316406 -1.078125 L 8.316406 0 L 11.457031 0 L 11.457031 -14.097656 L 8.316406 -14.097656 L 8.316406 -9.835938 C 7.597656 -10.65625 6.578125 -10.996094 5.519531 -10.996094 Z M 5.859375 -2.878906 C 4.257812 -2.878906 3.4375 -4.179688 3.4375 -5.480469 C 3.4375 -6.796875 4.238281 -8.097656 5.859375 -8.097656 C 7.21875 -8.097656 8.316406 -6.917969 8.316406 -5.480469 C 8.316406 -4.039062 7.21875 -2.878906 5.859375 -2.878906 Z M 5.859375 -2.878906 "/></g></g></g></svg>